<svg xmlns="http://www.w3.org/2000/svg" xmlns:xlink="http://www.w3.org/1999/xlink" viewBox="0 0 30 30" fill="#FFC300">
  <path d="M8 3C6.343 3 5 4.343 5 6L5 24C5 25.654 6.346 27 8 27L14.947266 27C14.633266 26.371 14.389469 25.702 14.230469 25L8 25C7.449 25 7 24.551 7 24C7 23.449 7.449 23 8 23L14 23C14 18.029 18.029 14 23 14C23.688 14 24.356 14.083469 25 14.230469L25 5C25 3.895 24.105 3 23 3L8 3 z M 23 16C19.134 16 16 19.134 16 23C16 26.866 19.134 30 23 30C26.866 30 30 26.866 30 23C30 19.134 26.866 16 23 16 z M 23 19C23.552 19 24 19.447 24 20L24 22L26 22C26.552 22 27 22.447 27 23C27 23.553 26.552 24 26 24L24 24L24 26C24 26.553 23.552 27 23 27C22.448 27 22 26.553 22 26L22 24L20 24C19.448 24 19 23.553 19 23C19 22.447 19.448 22 20 22L22 22L22 20C22 19.447 22.448 19 23 19 z" fill="#FFC300" />
</svg>