<?xml version="1.0" encoding="utf-8"?>
<!-- Generator: Adobe Illustrator 25.0.0, SVG Export Plug-In . SVG Version: 6.00 Build 0)  -->
<svg version="1.1" id="Layer_1" xmlns="http://www.w3.org/2000/svg" xmlns:xlink="http://www.w3.org/1999/xlink" x="0px" y="0px"
	 viewBox="0 0 120.9 116.7" style="enable-background:new 0 0 120.9 116.7;" xml:space="preserve">
<style type="text/css">
	.st0{fill:#3A62AE;}
	.st1{fill:#5F8AC7;}
	.st2{fill:#94B6E0;}
	.st3{fill:#E9B121;}
	.st4{fill:#FEC40E;}
	.st5{fill:#FEC40E;stroke:#FFFFFF;stroke-width:4;stroke-miterlimit:10;}
	.st6{fill:#455FA1;}
	.st7{fill:#304D8A;}
	.st8{fill:#2A3E7C;}
	.st9{fill:#242E62;}
	.st10{fill:#FFFFFF;}
	.st11{fill:#DAEAF8;}
	.st12{fill:#F89422;}
	.st13{fill:#5EC1D8;}
	.st14{fill:#26A6A6;}
	.st15{fill:#FCAF17;}
	.st16{fill:#DB722A;}
	.st17{fill:#75C9F1;}
	.st18{fill:#4BBA7A;}
</style>
<g>
	<g id="Box">
		<path class="st0" d="M57.1,16.3L60.6,37h39.8L90,16.3H57.1z"/>
		<path class="st0" d="M43.3,16.3H10.4L0,37h39.8L43.3,16.3z"/>
		<path class="st1" d="M0,37h100.4v79.6H0V37z"/>
		<path class="st2" d="M97,37V89c0,7.6-6.2,13.9-13.9,13.9H0v13.9h100.4V37H97z"/>
		<path class="st3" d="M60.6,37l-3.5-20.8H43.3L39.8,37H60.6z"/>
		<path class="st4" d="M39.8,71.7L50.3,63l10.3,8.7V37H39.8V71.7z"/>
		<path class="st4" d="M10.4,85.5H45v20.8H10.4V85.5z"/>
		<g>
			<path class="st1" d="M26,94.2h12.1c1,0,1.7-0.8,1.7-1.7s-0.8-1.7-1.7-1.7H26c-1,0-1.7,0.8-1.7,1.7S25,94.2,26,94.2z"/>
			<path class="st1" d="M26,101.1h12.1c1,0,1.7-0.8,1.7-1.7s-0.8-1.7-1.7-1.7H26c-1,0-1.7,0.8-1.7,1.7S25,101.1,26,101.1z"/>
			<path class="st1" d="M17.3,94.2H19c1,0,1.7-0.8,1.7-1.7S20,90.7,19,90.7h-1.7c-1,0-1.7,0.8-1.7,1.7S16.4,94.2,17.3,94.2z"/>
			<path class="st1" d="M17.3,101.1H19c1,0,1.7-0.8,1.7-1.7S20,97.6,19,97.6h-1.7c-1,0-1.7,0.8-1.7,1.7S16.4,101.1,17.3,101.1z"/>
		</g>
	</g>
	<circle class="st5" cx="93.1" cy="27.9" r="25.9"/>
	<rect x="89.4" y="39.6" class="st6" width="6.8" height="3.4"/>
	<rect x="89.4" y="39.6" class="st7" width="1.5" height="3.4"/>
	<path class="st8" d="M99.6,44.9c0,0.2-0.2,0.3-0.3,0.3H86.4c-0.2,0-0.3-0.2-0.3-0.3v-1.7c0-0.2,0.2-0.3,0.3-0.3h12.9
		c0.2,0,0.3,0.2,0.3,0.3L99.6,44.9L99.6,44.9z"/>
	<path class="st9" d="M87.6,44.9v-1.7c0-0.2,0.2-0.3,0.3-0.3h-1.5c-0.2,0-0.3,0.2-0.3,0.3v1.7c0,0.2,0.2,0.3,0.3,0.3h1.5
		C87.7,45.2,87.6,45.1,87.6,44.9z"/>
	<path class="st8" d="M111.9,13.6H73.8c-0.2,0-0.4,0.2-0.4,0.4v25.1c0,0.2,0.2,0.4,0.4,0.4H100v-1.3c0-0.1,0.1-0.2,0.2-0.2h1
		c0.2,0,0.4-0.2,0.5-0.4l0.2-0.5c0.1-0.2,0-0.4-0.1-0.6l-0.7-0.7c0,0-0.1-0.1-0.1-0.2s0-0.1,0.1-0.2l1.3-1.3c0,0,0.1-0.1,0.2-0.1
		c0.1,0,0.1,0,0.2,0.1l0.7,0.7c0.1,0.1,0.2,0.1,0.4,0.1c0.1,0,0.2,0,0.2,0l0.5-0.2c0.2-0.1,0.3-0.3,0.3-0.5v-1
		c0-0.1,0.1-0.2,0.2-0.2h1.9c0.1,0,0.2,0.1,0.2,0.2v1c0,0.2,0.2,0.4,0.4,0.5l0.5,0.2c0.1,0,0.1,0,0.2,0c0.1,0,0.3-0.1,0.4-0.1
		l0.7-0.7c0,0,0.1-0.1,0.2-0.1c0.1,0,0.1,0,0.2,0.1l1.3,1.3c0,0,0.1,0.1,0.1,0.2c0,0.1,0,0.1-0.1,0.2l-0.7,0.7
		c-0.1,0.1-0.2,0.4-0.1,0.6l0.2,0.5c0.1,0.2,0.3,0.3,0.5,0.3h1c0.1,0,0.2,0.1,0.2,0.2v1.1c0-0.1,0.1-0.2,0.1-0.2V14.1
		C112.3,13.8,112.1,13.6,111.9,13.6z"/>
	<path class="st10" d="M75.3,35.2c0,0.1,0.1,0.3,0.3,0.3h25.7l1.2-1.2c0,0,0.1-0.1,0.2-0.1c0.1,0,0.1,0,0.2,0.1l0.7,0.7
		c0.1,0.1,0.2,0.1,0.4,0.1c0.1,0,0.2,0,0.2,0l0.5-0.2c0.2-0.1,0.3-0.3,0.3-0.5v-1c0-0.1,0.1-0.2,0.2-0.2h1.9c0.1,0,0.2,0.1,0.2,0.2
		v1c0,0.2,0.2,0.4,0.4,0.5l0.5,0.2c0.1,0,0.1,0,0.2,0c0.1,0,0.3-0.1,0.4-0.1l0.7-0.7c0,0,0.1-0.1,0.2-0.1s0.1,0,0.2,0.1l0.6,0.6V18
		H75.3V35.2z"/>
	<path class="st11" d="M76.8,35.2V18h-1.5v17.3c0,0.1,0.1,0.3,0.3,0.3h1.5C76.9,35.5,76.8,35.4,76.8,35.2z"/>
	<g>
		<path class="st12" d="M92.4,29.6c-0.7-0.7-1.7-0.9-2.6-0.5l-2.9-2.9l-0.6,0.6c0,0,0,0,0,0.1c0,0.2,0,0.3-0.1,0.5c0,0,0,0.1,0,0.1
			c0.2,0.3,0.1,0.6,0,0.8l2.3,2.3c-0.3,0.9-0.2,1.9,0.5,2.6c0.6,0.6,1.5,0.8,2.3,0.6c0,0,0,0,0.1,0c0,0,0,0,0-0.1c0,0,0-0.1,0-0.1
			L89.8,32l1.5-1.5l1.5,1.5c0,0,0.1,0,0.1,0c0,0,0,0,0.1,0c0,0,0,0,0-0.1C93.2,31.1,93,30.2,92.4,29.6z"/>
		<path class="st12" d="M84.7,26.2c0.1,0,0.3,0,0.4,0.1c0,0,0,0,0,0c0,0,0,0,0,0c0.1-0.1,0.3-0.1,0.4-0.1c0,0,0,0,0.1,0c0,0,0,0,0,0
			c0,0,0,0,0.1,0l0.6-0.6l-2.9-2.9c0.3-0.9,0.2-1.9-0.5-2.6c-0.6-0.6-1.5-0.8-2.3-0.6c0,0,0,0-0.1,0c0,0,0,0,0,0.1c0,0,0,0.1,0,0.1
			l1.5,1.5l-1.5,1.5L79,21.2c0,0-0.1,0-0.1,0c0,0,0,0-0.1,0c0,0,0,0,0,0.1c-0.2,0.8,0,1.7,0.6,2.3c0.7,0.7,1.7,0.9,2.6,0.5l2.3,2.3
			C84.4,26.3,84.5,26.2,84.7,26.2z"/>
	</g>
	<circle class="st6" cx="92.9" cy="37.5" r="1.2"/>
	<path class="st13" d="M110.1,15.9H75.6c-0.1,0-0.3,0.1-0.3,0.3V18h35.1v-1.9C110.4,16,110.3,15.9,110.1,15.9z"/>
	<path class="st14" d="M77.1,15.9h-1.5c-0.1,0-0.3,0.1-0.3,0.3V18h1.5v-1.9C76.8,16,76.9,15.9,77.1,15.9z"/>
	<path class="st12" d="M104.9,45.1c0,0.2,0.1,0.3,0.3,0.3h1.9c0.2,0,0.3-0.1,0.3-0.3v-1c0-0.2,0.1-0.4,0.3-0.4l0.5-0.2
		c0.2-0.1,0.4,0,0.5,0.1l0.7,0.7c0.1,0.1,0.3,0.1,0.5,0l1.3-1.3c0.1-0.1,0.1-0.3,0-0.5l-0.7-0.7c-0.1-0.1-0.2-0.4-0.1-0.5l0.2-0.5
		c0.1-0.2,0.2-0.3,0.4-0.3h1c0.2,0,0.3-0.1,0.3-0.3v-1.8c0-0.2-0.1-0.3-0.3-0.3h-1c-0.2,0-0.4-0.1-0.4-0.3l-0.2-0.5
		c-0.1-0.2,0-0.4,0.1-0.5l0.7-0.7c0.1-0.1,0.1-0.3,0-0.5l-1.3-1.3c-0.1-0.1-0.3-0.1-0.5,0l-0.7,0.7c-0.1,0.1-0.4,0.2-0.5,0.1
		l-0.5-0.2c-0.2-0.1-0.3-0.2-0.3-0.4v-1c0-0.2-0.1-0.3-0.3-0.3h-1.9c-0.2,0-0.3,0.1-0.3,0.3v1c0,0.2-0.1,0.4-0.3,0.4l-0.5,0.2
		c-0.2,0.1-0.4,0-0.5-0.1l-0.7-0.7c-0.1-0.1-0.3-0.1-0.5,0l-1.3,1.3c-0.1,0.1-0.1,0.3,0,0.5l0.7,0.7c0.1,0.1,0.2,0.4,0.1,0.5
		l-0.2,0.5c-0.1,0.2-0.2,0.3-0.4,0.3h-1c-0.2,0-0.3,0.1-0.3,0.3v1.8c0,0.2,0.1,0.3,0.3,0.3h1c0.2,0,0.4,0.1,0.4,0.3l0.2,0.5
		c0.1,0.2,0,0.4-0.1,0.5l-0.7,0.7c-0.1,0.1-0.1,0.3,0,0.5l1.3,1.3c0.1,0.1,0.3,0.1,0.5,0l0.7-0.7c0.1-0.1,0.4-0.2,0.5-0.1l0.5,0.2
		c0.2,0.1,0.3,0.2,0.3,0.4V45.1L104.9,45.1z"/>
	<path class="st15" d="M106.1,42.2c-1.6,0-3-1.3-3-3c0-1.6,1.3-3,3-3c1.6,0,3,1.3,3,3C109.1,40.9,107.8,42.2,106.1,42.2z"/>
	<path class="st12" d="M104.1,39.2c0-1.5,1.1-2.7,2.5-2.9c-0.1,0-0.3,0-0.5,0c-1.6,0-3,1.3-3,3c0,1.6,1.3,3,3,3c0.2,0,0.3,0,0.5,0
		C105.2,41.9,104.1,40.7,104.1,39.2z"/>
	<path class="st16" d="M106.1,42.7c-1.9,0-3.5-1.5-3.5-3.4c0-1.9,1.6-3.4,3.5-3.4c1.9,0,3.5,1.5,3.5,3.4
		C109.6,41.1,108,42.7,106.1,42.7z M106.1,36.8c-1.4,0-2.5,1.1-2.5,2.5c0,1.4,1.1,2.5,2.5,2.5c1.4,0,2.5-1.1,2.5-2.5
		C108.6,37.9,107.5,36.8,106.1,36.8z"/>
	<path class="st15" d="M106.1,40.5c-0.7,0-1.3-0.6-1.3-1.3c0-0.7,0.6-1.3,1.3-1.3c0.7,0,1.3,0.6,1.3,1.3
		C107.4,39.9,106.8,40.5,106.1,40.5z"/>
	<path class="st12" d="M105.8,39.2c0-0.5,0.3-1,0.8-1.2c-0.1-0.1-0.3-0.1-0.5-0.1c-0.7,0-1.3,0.6-1.3,1.3c0,0.7,0.6,1.3,1.3,1.3
		c0.2,0,0.3,0,0.5-0.1C106.1,40.2,105.8,39.8,105.8,39.2z"/>
	<path class="st16" d="M106.1,41c-1,0-1.7-0.8-1.7-1.7c0-1,0.8-1.7,1.7-1.7c1,0,1.7,0.8,1.7,1.7C107.9,40.2,107.1,41,106.1,41z
		 M106.1,38.5c-0.4,0-0.8,0.3-0.8,0.8c0,0.4,0.3,0.8,0.8,0.8c0.4,0,0.8-0.3,0.8-0.8C106.9,38.8,106.6,38.5,106.1,38.5z"/>
	<g>
		<path class="st6" d="M84.1,27.6l0.8,0.8c0.1,0.1,0.1,0.1,0.2,0.2l0.4-0.4c-0.1,0-0.2-0.1-0.2-0.2l-0.8-0.8
			c-0.1-0.1-0.1-0.1-0.2-0.2l-0.4,0.4C83.9,27.5,84,27.5,84.1,27.6z"/>
		<path class="st6" d="M92.6,20.3l-0.4-0.4c0,0-0.1-0.1-0.2,0l-1,0.5c-0.1,0-0.1,0.1-0.2,0.2l-0.4,0.9l-4.8,4.8
			c-0.2,0-0.4,0-0.6,0.2c0.1,0,0.1,0.1,0.2,0.1l0.8,0.8c0,0,0.1,0.1,0.1,0.2c0.2-0.2,0.2-0.4,0.2-0.6l4.8-4.8l0.9-0.4
			c0.1,0,0.1-0.1,0.2-0.2l0.5-1C92.7,20.4,92.6,20.3,92.6,20.3z"/>
	</g>
	<path class="st8" d="M86.1,28.2c-0.3,0.3-0.7,0.2-1,0l-0.8-0.8c-0.3-0.3-0.3-0.8,0-1c0.3-0.3,0.7-0.2,1,0l0.8,0.8
		C86.4,27.5,86.4,28,86.1,28.2z"/>
	<g>
		<path class="st17" d="M106.1,21.6h-10c-0.3,0-0.6-0.3-0.6-0.6s0.3-0.6,0.6-0.6h10c0.3,0,0.6,0.3,0.6,0.6
			C106.7,21.4,106.4,21.6,106.1,21.6z"/>
		<path class="st17" d="M106.1,23.5h-10c-0.3,0-0.6-0.3-0.6-0.6s0.3-0.6,0.6-0.6h10c0.3,0,0.6,0.3,0.6,0.6
			C106.7,23.2,106.4,23.5,106.1,23.5z"/>
		<path class="st17" d="M106.1,25.3h-10c-0.3,0-0.6-0.3-0.6-0.6s0.3-0.6,0.6-0.6h10c0.3,0,0.6,0.3,0.6,0.6
			C106.7,25.1,106.4,25.3,106.1,25.3z"/>
	</g>
	<g>
		<path class="st18" d="M106.1,28.5h-10c-0.3,0-0.6-0.3-0.6-0.6c0-0.3,0.3-0.6,0.6-0.6h10c0.3,0,0.6,0.3,0.6,0.6
			C106.7,28.2,106.4,28.5,106.1,28.5z"/>
		<path class="st18" d="M106.1,30.3h-10c-0.3,0-0.6-0.3-0.6-0.6s0.3-0.6,0.6-0.6h10c0.3,0,0.6,0.3,0.6,0.6
			C106.7,30.1,106.4,30.3,106.1,30.3z"/>
		<path class="st18" d="M101.1,32.2h-5c-0.3,0-0.6-0.3-0.6-0.6s0.3-0.6,0.6-0.6h5c0.3,0,0.6,0.3,0.6,0.6S101.4,32.2,101.1,32.2z"/>
	</g>
	<path class="st8" d="M81.4,33c-0.3,0.3-0.8,0.3-1.1,0l-0.8-0.8c-0.3-0.3-0.3-0.8,0-1.1l3.5-3.5c0.3-0.3,0.8-0.3,1.1,0l0.8,0.8
		c0.3,0.3,0.3,0.8,0,1.1L81.4,33z"/>
	<g>
		<path class="st9" d="M80.8,32.1c-0.3-0.3-0.3-0.8,0-1.1l3.4-3.4l-0.1-0.1c-0.3-0.3-0.8-0.3-1.1,0l-3.5,3.5c-0.3,0.3-0.3,0.8,0,1.1
			l0.8,0.8c0.3,0.3,0.8,0.3,1.1,0l0.1-0.1L80.8,32.1z"/>
		<path class="st9" d="M84.7,26.8c0.3-0.3,0.7-0.2,1,0l-0.5-0.5c-0.3-0.3-0.8-0.3-1,0c-0.3,0.3-0.2,0.7,0,1l0.5,0.5
			C84.5,27.6,84.5,27.1,84.7,26.8z"/>
	</g>
</g>
</svg>
