<svg xmlns="http://www.w3.org/2000/svg" xmlns:xlink="http://www.w3.org/1999/xlink" viewBox="0 0 24 24" fill="#FFC300">
  <path d="M4 3 A 1 1 0 0 0 3 4 A 1 1 0 0 0 4 5 A 1 1 0 0 0 5 4 A 1 1 0 0 0 4 3 z M 8 3 A 1.0001 1.0001 0 1 0 8 5L20 5 A 1.0001 1.0001 0 1 0 20 3L8 3 z M 4 7 A 1 1 0 0 0 3 8 A 1 1 0 0 0 4 9 A 1 1 0 0 0 5 8 A 1 1 0 0 0 4 7 z M 8 7 A 1.0001 1.0001 0 1 0 8 9L18 9 A 1.0001 1.0001 0 1 0 18 7L8 7 z M 4 11 A 1 1 0 0 0 3 12 A 1 1 0 0 0 4 13 A 1 1 0 0 0 5 12 A 1 1 0 0 0 4 11 z M 8 11 A 1.0001 1.0001 0 1 0 8 13L16 13 A 1.0001 1.0001 0 1 0 16 11L8 11 z M 4 15 A 1 1 0 0 0 3 16 A 1 1 0 0 0 4 17 A 1 1 0 0 0 5 16 A 1 1 0 0 0 4 15 z M 8 15 A 1.0001 1.0001 0 1 0 8 17L14 17 A 1.0001 1.0001 0 1 0 14 15L8 15 z M 4 19 A 1 1 0 0 0 3 20 A 1 1 0 0 0 4 21 A 1 1 0 0 0 5 20 A 1 1 0 0 0 4 19 z M 8 19 A 1.0001 1.0001 0 1 0 8 21L12 21 A 1.0001 1.0001 0 1 0 12 19L8 19 z" fill="#FFC300" />
</svg>