<svg xmlns="http://www.w3.org/2000/svg" xmlns:xlink="http://www.w3.org/1999/xlink" viewBox="0 0 64 64" fill="#FFC300">
  <path d="M12 6C10.351563 6 9 7.351563 9 9L9 16L4 16C2.351563 16 1 17.351563 1 19L1 57C1 58.648438 2.351563 60 4 60L50 60C51.648438 60 53 58.648438 53 57L53 50L58 50C59.648438 50 61 48.648438 61 47L61 9C61 7.351563 59.648438 6 58 6 Z M 12 8L58 8C58.550781 8 59 8.449219 59 9L59 16L55 16C54.445313 16 54 16.445313 54 17C54 17.554688 54.445313 18 55 18L59 18L59 47C59 47.550781 58.550781 48 58 48L53 48L53 19C53 17.351563 51.648438 16 50 16L11 16L11 9C11 8.449219 11.449219 8 12 8 Z M 15 10C14.445313 10 14 10.445313 14 11L14 13C14 13.554688 14.445313 14 15 14C15.554688 14 16 13.554688 16 13L16 11C16 10.445313 15.554688 10 15 10 Z M 20 10C19.445313 10 19 10.445313 19 11L19 13C19 13.554688 19.445313 14 20 14C20.554688 14 21 13.554688 21 13L21 11C21 10.445313 20.554688 10 20 10 Z M 25 10C24.445313 10 24 10.445313 24 11L24 13C24 13.554688 24.445313 14 25 14C25.554688 14 26 13.554688 26 13L26 11C26 10.445313 25.554688 10 25 10 Z M 30 10C29.445313 10 29 10.445313 29 11L29 13C29 13.554688 29.445313 14 30 14C30.554688 14 31 13.554688 31 13L31 11C31 10.445313 30.554688 10 30 10 Z M 35 10C34.445313 10 34 10.445313 34 11L34 13C34 13.554688 34.445313 14 35 14C35.554688 14 36 13.554688 36 13L36 11C36 10.445313 35.554688 10 35 10 Z M 40 10C39.445313 10 39 10.445313 39 11L39 13C39 13.554688 39.445313 14 40 14C40.554688 14 41 13.554688 41 13L41 11C41 10.445313 40.554688 10 40 10 Z M 45 10C44.445313 10 44 10.445313 44 11L44 13C44 13.554688 44.445313 14 45 14C45.554688 14 46 13.554688 46 13L46 11C46 10.445313 45.554688 10 45 10 Z M 50 10C49.445313 10 49 10.445313 49 11L49 13C49 13.554688 49.445313 14 50 14C50.554688 14 51 13.554688 51 13L51 11C51 10.445313 50.554688 10 50 10 Z M 55 10C54.445313 10 54 10.445313 54 11L54 13C54 13.554688 54.445313 14 55 14C55.554688 14 56 13.554688 56 13L56 11C56 10.445313 55.554688 10 55 10 Z M 4 18L50 18C50.550781 18 51 18.449219 51 19L51 26L3 26L3 19C3 18.449219 3.449219 18 4 18 Z M 7 20C6.445313 20 6 20.445313 6 21L6 23C6 23.554688 6.445313 24 7 24C7.554688 24 8 23.554688 8 23L8 21C8 20.445313 7.554688 20 7 20 Z M 12 20C11.445313 20 11 20.445313 11 21L11 23C11 23.554688 11.445313 24 12 24C12.554688 24 13 23.554688 13 23L13 21C13 20.445313 12.554688 20 12 20 Z M 17 20C16.445313 20 16 20.445313 16 21L16 23C16 23.554688 16.445313 24 17 24C17.554688 24 18 23.554688 18 23L18 21C18 20.445313 17.554688 20 17 20 Z M 22 20C21.445313 20 21 20.445313 21 21L21 23C21 23.554688 21.445313 24 22 24C22.554688 24 23 23.554688 23 23L23 21C23 20.445313 22.554688 20 22 20 Z M 27 20C26.445313 20 26 20.445313 26 21L26 23C26 23.554688 26.445313 24 27 24C27.554688 24 28 23.554688 28 23L28 21C28 20.445313 27.554688 20 27 20 Z M 32 20C31.445313 20 31 20.445313 31 21L31 23C31 23.554688 31.445313 24 32 24C32.554688 24 33 23.554688 33 23L33 21C33 20.445313 32.554688 20 32 20 Z M 37 20C36.445313 20 36 20.445313 36 21L36 23C36 23.554688 36.445313 24 37 24C37.554688 24 38 23.554688 38 23L38 21C38 20.445313 37.554688 20 37 20 Z M 42 20C41.445313 20 41 20.445313 41 21L41 23C41 23.554688 41.445313 24 42 24C42.554688 24 43 23.554688 43 23L43 21C43 20.445313 42.554688 20 42 20 Z M 47 20C46.445313 20 46 20.445313 46 21L46 23C46 23.554688 46.445313 24 47 24C47.554688 24 48 23.554688 48 23L48 21C48 20.445313 47.554688 20 47 20 Z M 3 28L51 28L51 57C51 57.550781 50.550781 58 50 58L4 58C3.449219 58 3 57.550781 3 57 Z M 8 34C7.445313 34 7 34.445313 7 35L7 49C7 49.554688 7.445313 50 8 50L24 50C24.554688 50 25 49.554688 25 49L25 35C25 34.445313 24.554688 34 24 34 Z M 30 34C29.445313 34 29 34.445313 29 35C29 35.554688 29.445313 36 30 36L38 36C38.554688 36 39 35.554688 39 35C39 34.445313 38.554688 34 38 34 Z M 42 34C41.445313 34 41 34.445313 41 35C41 35.554688 41.445313 36 42 36L46 36C46.554688 36 47 35.554688 47 35C47 34.445313 46.554688 34 46 34 Z M 9 36L23 36L23 48L9 48 Z M 30 38C29.445313 38 29 38.445313 29 39C29 39.554688 29.445313 40 30 40L46 40C46.554688 40 47 39.554688 47 39C47 38.445313 46.554688 38 46 38 Z M 30 44C29.445313 44 29 44.445313 29 45C29 45.554688 29.445313 46 30 46L43 46C43.554688 46 44 45.554688 44 45C44 44.445313 43.554688 44 43 44 Z M 30 48C29.445313 48 29 48.445313 29 49C29 49.554688 29.445313 50 30 50L39 50C39.554688 50 40 49.554688 40 49C40 48.445313 39.554688 48 39 48Z" fill="#FFC300" />
</svg>