<svg xmlns="http://www.w3.org/2000/svg" xmlns:xlink="http://www.w3.org/1999/xlink" viewBox="0 0 32 32" fill="#FFC300">
  <path d="M16 2C14.742188 2 13.847656 2.890625 13.40625 4L5 4L5 29L27 29L27 4L18.59375 4C18.152344 2.890625 17.257813 2 16 2 Z M 16 4C16.554688 4 17 4.445313 17 5L17 6L20 6L20 8L12 8L12 6L15 6L15 5C15 4.445313 15.445313 4 16 4 Z M 7 6L10 6L10 10L22 10L22 6L25 6L25 27L7 27 Z M 9 12L9 17L14 17L14 12 Z M 16 13L16 15L23 15L23 13 Z M 11 14L12 14L12 15L11 15 Z M 9 19L9 24L14 24L14 19 Z M 16 20L16 22L23 22L23 20Z" fill="#FFC300" />
</svg>