<svg xmlns="http://www.w3.org/2000/svg" xmlns:xlink="http://www.w3.org/1999/xlink" viewBox="0 0 80 80" fill="#FFC300">
  <path d="M16 9C14.346 9 13 10.346 13 12L13 68C13 69.654 14.346 71 16 71L46.353516 71C46.094516 70.35 45.875453 69.682 45.689453 69L23 69L23 11L64 11C64.551 11 65 11.449 65 12L65 45.050781C65.677 45.086781 66.344 45.156719 67 45.261719L67 12C67 10.346 65.654 9 64 9L16 9 z M 16 11L21 11L21 69L16 69C15.449 69 15 68.551 15 68L15 12C15 11.449 15.449 11 16 11 z M 26 13 A 1 1 0 0 0 25 14 A 1 1 0 0 0 26 15 A 1 1 0 0 0 27 14 A 1 1 0 0 0 26 13 z M 30 13 A 1 1 0 0 0 29 14 A 1 1 0 0 0 30 15 A 1 1 0 0 0 31 14 A 1 1 0 0 0 30 13 z M 34 13 A 1 1 0 0 0 33 14 A 1 1 0 0 0 34 15 A 1 1 0 0 0 35 14 A 1 1 0 0 0 34 13 z M 38 13 A 1 1 0 0 0 37 14 A 1 1 0 0 0 38 15 A 1 1 0 0 0 39 14 A 1 1 0 0 0 38 13 z M 42 13 A 1 1 0 0 0 41 14 A 1 1 0 0 0 42 15 A 1 1 0 0 0 43 14 A 1 1 0 0 0 42 13 z M 46 13 A 1 1 0 0 0 45 14 A 1 1 0 0 0 46 15 A 1 1 0 0 0 47 14 A 1 1 0 0 0 46 13 z M 50 13 A 1 1 0 0 0 49 14 A 1 1 0 0 0 50 15 A 1 1 0 0 0 51 14 A 1 1 0 0 0 50 13 z M 54 13 A 1 1 0 0 0 53 14 A 1 1 0 0 0 54 15 A 1 1 0 0 0 55 14 A 1 1 0 0 0 54 13 z M 58 13 A 1 1 0 0 0 57 14 A 1 1 0 0 0 58 15 A 1 1 0 0 0 59 14 A 1 1 0 0 0 58 13 z M 62 13 A 1 1 0 0 0 61 14 A 1 1 0 0 0 62 15 A 1 1 0 0 0 63 14 A 1 1 0 0 0 62 13 z M 62 17 A 1 1 0 0 0 61 18 A 1 1 0 0 0 62 19 A 1 1 0 0 0 63 18 A 1 1 0 0 0 62 17 z M 62 21 A 1 1 0 0 0 61 22 A 1 1 0 0 0 62 23 A 1 1 0 0 0 63 22 A 1 1 0 0 0 62 21 z M 62 25 A 1 1 0 0 0 61 26 A 1 1 0 0 0 62 27 A 1 1 0 0 0 63 26 A 1 1 0 0 0 62 25 z M 34 29 A 1 1 0 0 0 33 30 A 1 1 0 0 0 34 31 A 1 1 0 0 0 35 30 A 1 1 0 0 0 34 29 z M 38 29 A 1 1 0 0 0 37 30 A 1 1 0 0 0 38 31 A 1 1 0 0 0 39 30 A 1 1 0 0 0 38 29 z M 42 29 A 1 1 0 0 0 41 30 A 1 1 0 0 0 42 31 A 1 1 0 0 0 43 30 A 1 1 0 0 0 42 29 z M 46 29 A 1 1 0 0 0 45 30 A 1 1 0 0 0 46 31 A 1 1 0 0 0 47 30 A 1 1 0 0 0 46 29 z M 50 29 A 1 1 0 0 0 49 30 A 1 1 0 0 0 50 31 A 1 1 0 0 0 51 30 A 1 1 0 0 0 50 29 z M 62 29 A 1 1 0 0 0 61 30 A 1 1 0 0 0 62 31 A 1 1 0 0 0 63 30 A 1 1 0 0 0 62 29 z M 62 33 A 1 1 0 0 0 61 34 A 1 1 0 0 0 62 35 A 1 1 0 0 0 63 34 A 1 1 0 0 0 62 33 z M 62 37 A 1 1 0 0 0 61 38 A 1 1 0 0 0 62 39 A 1 1 0 0 0 63 38 A 1 1 0 0 0 62 37 z M 62 41 A 1 1 0 0 0 61 42 A 1 1 0 0 0 62 43 A 1 1 0 0 0 63 42 A 1 1 0 0 0 62 41 z M 64 48C55.178 48 48 55.178 48 64C48 72.822 55.178 80 64 80C72.822 80 80 72.822 80 64C80 55.178 72.822 48 64 48 z M 64 50C71.72 50 78 56.28 78 64C78 71.72 71.72 78 64 78C56.28 78 50 71.72 50 64C50 56.28 56.28 50 64 50 z M 63 57L63 63L57 63L57 65L63 65L63 71L65 71L65 65L71 65L71 63L65 63L65 57L63 57 z M 26 65 A 1 1 0 0 0 25 66 A 1 1 0 0 0 26 67 A 1 1 0 0 0 27 66 A 1 1 0 0 0 26 65 z M 30 65 A 1 1 0 0 0 29 66 A 1 1 0 0 0 30 67 A 1 1 0 0 0 31 66 A 1 1 0 0 0 30 65 z M 34 65 A 1 1 0 0 0 33 66 A 1 1 0 0 0 34 67 A 1 1 0 0 0 35 66 A 1 1 0 0 0 34 65 z M 38 65 A 1 1 0 0 0 37 66 A 1 1 0 0 0 38 67 A 1 1 0 0 0 39 66 A 1 1 0 0 0 38 65 z M 42 65 A 1 1 0 0 0 41 66 A 1 1 0 0 0 42 67 A 1 1 0 0 0 43 66 A 1 1 0 0 0 42 65 z" fill="#FFC300" />
</svg>