<?xml version="1.0" encoding="utf-8"?>
<!-- Generator: Adobe Illustrator 25.0.0, SVG Export Plug-In . SVG Version: 6.00 Build 0)  -->
<svg version="1.1" id="Layer_1" xmlns="http://www.w3.org/2000/svg" xmlns:xlink="http://www.w3.org/1999/xlink" x="0px" y="0px"
	 viewBox="0 0 263.5 263.5" style="enable-background:new 0 0 263.5 263.5;" xml:space="preserve">
<style type="text/css">
	.st0{fill:#1A3765;}
	.st1{fill:none;stroke:#1A3765;stroke-width:2;stroke-miterlimit:10;}
</style>
<g>
	<path class="st0" d="M0,57.7c0-11.8,0-23.6,0-35.4C0.1,8.9,8.8,0.1,22.2,0C46.1,0,69.9,0,93.8,0.1c12.7,0,21.7,8.9,21.7,21.6
		c0.1,24,0.1,48.1,0,72.1c0,12.9-8.9,21.8-21.8,21.9c-24.2,0.1-48.4,0.1-72.7,0c-12-0.1-21-9.2-21.1-21.2C0,82.2,0,70,0,57.7
		C0,57.7,0,57.7,0,57.7z"/>
	<path class="st0" d="M147,57.9c0-12.1,0-24.1,0-36.2c0-12.6,9.1-21.6,21.7-21.6c24,0,48.1,0,72.1,0c12.6,0,21.6,9,21.6,21.7
		c0,24,0,48.1,0,72.1c0,12.8-9,21.8-21.8,21.8c-24,0-47.9,0-71.9,0c-12.8,0-21.7-9-21.7-21.9C147,81.9,147,69.9,147,57.9z"/>
	<path class="st1" d="M147,204.7c0-12.1,0-24.1,0-36.2c0-12.6,9.1-21.6,21.7-21.6c24,0,48.1,0,72.1,0c12.6,0,21.6,9,21.6,21.7
		c0,24,0,48.1,0,72.1c0,12.8-9,21.8-21.8,21.8c-24,0-47.9,0-71.9,0c-12.8,0-21.7-9-21.7-21.9C147,228.7,147,216.7,147,204.7z"/>
	<path class="st0" d="M0,204.7c0-12.1,0-24.1,0-36.2c0-12.6,9.1-21.6,21.7-21.6c24,0,48.1,0,72.1,0c12.6,0,21.6,9,21.6,21.7
		c0,24,0,48.1,0,72.1c0,12.8-9,21.7-21.9,21.8c-23.9,0-47.7,0-71.6,0c-13.1,0-22-8.9-22-22.1c0-5.9,0-11.9,0-17.8
		C0,216.6,0,210.7,0,204.7z"/>
</g>
</svg>
