<?xml version="1.0" encoding="utf-8"?>
<!-- Generator: Adobe Illustrator 25.0.0, SVG Export Plug-In . SVG Version: 6.00 Build 0)  -->
<svg version="1.1" id="Layer_1" xmlns="http://www.w3.org/2000/svg" xmlns:xlink="http://www.w3.org/1999/xlink" x="0px" y="0px"
	 viewBox="0 0 147.6 148" style="enable-background:new 0 0 147.6 148;" xml:space="preserve">
<style type="text/css">
	.st0{fill:#DAA628;}
	.st1{fill:#1A3765;}
	.st2{fill:#28538F;}
	.st3{fill:#94B6E0;}
	.st4{fill:#FEC40E;}
	.st5{fill:#F16666;}
	.st6{fill:#3168AA;}
	.st7{fill:#FBB356;}
	.st8{fill:#ECEEEF;}
	.st9{fill:#5F8AC7;}
</style>
<g>
	<path class="st0" d="M110.9,65.6c-0.1,0.8-0.1,1.5-0.1,2.3c-1.2,0.4-2.3,0.8-3.5,1.2c-2.2,0.7-4.4,1.5-6.5,2.2l-0.1,0l0,0.1
		c-0.2,0-0.4,0.1-0.6,0.1c-0.3,0.1-0.6,0.2-0.9,0.3l0,0c-0.1,0-0.2,0-0.3,0.1c-8.1,2.7-16.2,5.4-24.4,8.1c-0.7,0-0.8-0.4-0.8-1
		c0-2.3,0-4.6,0-6.9c0-6.9,0-13.7,0-20.6c0-1.9,0-3.7,0-5.6c0-6.8,0-13.6,0-20.4c-0.2-1,0.3-1.5,1.2-1.6c0.2,0,0.5,0,0.6-0.3
		c2.7-0.9,5.5-1.7,8.2-2.6c3.9-1.3,7.8-2.7,11.8-4c4.1-1.4,8.3-2.7,12.4-4.1c0.5-0.2,1.1-0.2,1.4-0.8c0.7,0.6,1.1,1.4,1.4,2.3
		c0,6.1,0,12.2,0,18.3c0,0.5,0.1,0.9,0.1,1.4c-0.1,1.9-0.1,3.7,0,5.6c0,0.3-0.1,0.7-0.1,1c0,6.5-0.1,12.9,0.1,19.4
		C110.7,61.9,110.7,63.7,110.9,65.6z"/>
	<path class="st1" d="M147.6,132.3c0,2.7-0.8,3.9-3.3,4.9c-0.1,0-0.1,0.1-0.2,0.1c-0.2,0-0.3,0.1-0.5,0.1c-3.1,1-6.2,1.9-9.3,3.1
		c-0.2,0-0.3,0.1-0.5,0.1c-0.1,0-0.1,0.1-0.2,0.1c-0.1,0-0.3,0.1-0.5,0.1c-0.4,0-0.8,0.1-1.1,0.4c-0.1,0.1-0.2,0.1-0.3,0.1
		c-0.1,0-0.1,0-0.2,0.1c-4.8,1.6-9.5,3.1-14.3,4.7c-1.5,0.5-3,1-4.6,1.5c-0.6,0.2-1.2,0.4-1.9,0.2c0-18.5,0-37,0-55.5
		c0.1-0.1,0.3-0.2,0.4-0.3c1.6-0.5,3.3-1,4.9-1.6c10.1-3.4,20.2-6.8,30.3-10.2c0.1,0,0.1,0.1,0.2,0.1c0.1,0.1,0.1,0.2,0.2,0.2
		c0.6,0.9,0.7,1.9,0.7,3C147.6,100,147.6,116.1,147.6,132.3z"/>
	<path class="st2" d="M36.9,132.8c0,5,0,10.1,0,15.1c-0.3,0-0.6,0.1-1,0.1c-0.1,0-0.2,0-0.3-0.1c-0.1-0.1-0.2-0.2-0.3-0.1
		c-0.2,0-0.3-0.1-0.5-0.1c0-0.1-0.1-0.1-0.2-0.1c-0.2,0-0.3-0.1-0.5-0.1c-0.1-0.1-0.2-0.2-0.4-0.2c-7-2.4-14-4.8-21.1-7l-0.1-0.1
		l-0.1,0c-0.1-0.1-0.3-0.1-0.4-0.2c-1.9-0.7-3.7-1.4-5.7-1.8c-1-0.5-2.1-0.8-3.2-1.2c-2-0.6-3.1-2.2-3.1-4.3c0-16.5,0-33,0-49.5
		c0-1,0.3-2,0.9-2.8c1.5,0.5,3,0.9,4.5,1.4c1.5,0.5,3,1.1,4.6,1.4c0.9,0.4,1.8,0.7,2.7,1c0.6,0.2,1.1,0.3,1.7,0.4
		c0.3,0.2,0.7,0.3,1.1,0.5c3.6,1.2,7.2,2.4,10.8,3.6c1.1,0.4,2.2,0.9,3.4,1c1.2,0.7,2.6,0.9,3.9,1.4c1.1,0.4,2.2,0.8,3.3,1.2h0
		c0,0.3,0,0.5,0,0.7l0,0.8C36.9,106.9,36.9,119.9,36.9,132.8z"/>
	<path class="st1" d="M73.7,136.1c-0.1,0.1-0.2,0.1-0.3,0.2c-0.7,0.1-1.3,0.4-2,0.6l-0.1,0l-0.1,0.1c-0.1,0.1-0.3,0.1-0.4,0.2
		c-0.1,0-0.2,0-0.3,0.1c-0.9,0.2-1.8,0.5-2.7,0.9l-0.1,0l-0.1,0.1c-0.1,0.1-0.3,0.1-0.4,0.2c-0.1,0-0.2,0-0.3,0
		c-0.9,0.2-1.8,0.5-2.7,0.9l-0.1,0l-0.1,0.1c-0.1,0.1-0.3,0.1-0.4,0.2c-0.1,0-0.2,0-0.3,0.1c-0.2,0-0.4,0-0.5,0.2
		c-0.2,0-0.3,0.1-0.5,0.1c-3.1,1-6.2,1.9-9.2,3.1c-0.1,0-0.2,0-0.3,0.1c-0.9,0.2-1.8,0.5-2.7,0.9l-0.1,0l-0.1,0.1
		c-0.1,0.1-0.3,0.1-0.4,0.2c-0.1,0-0.2,0-0.3,0c-0.9,0.2-1.8,0.5-2.7,0.9l-0.1,0L47,145c-0.1,0.1-0.3,0.1-0.4,0.2
		c-0.1,0-0.2,0-0.3,0c-0.9,0.2-1.8,0.5-2.7,0.9l-0.1,0l-0.1,0.1c-0.1,0.1-0.3,0.1-0.4,0.2c-0.1,0-0.2,0-0.3,0.1
		c-0.9,0.2-1.8,0.5-2.7,0.9l-0.1,0l-0.1,0.1c-0.1,0.1-0.3,0.1-0.4,0.2c-0.1,0-0.2,0-0.3,0.1c-0.8,0.1-1.6,0.6-2.5,0.4
		c0-5,0-10.1,0-15.1c0-12.9,0-25.9,0-38.8l0-0.8c0-0.3,0-0.5,0-0.7h0c4.2-1.4,8.5-2.8,12.7-4.3c3.8-1.3,7.6-2.4,11.4-3.9
		c0.1-0.1,0.2-0.1,0.3-0.2c0.1,0,0.2,0,0.3,0c1.4-0.2,2.8-0.9,4.2-1.3c2.6-0.8,5.2-1.8,7.9-2.5C73.7,98.9,73.7,117.5,73.7,136.1z"/>
	<path class="st3" d="M92.9,86.5c-0.5-0.2-0.9-0.4-1.4-0.5v0C92,86.1,92.4,86.3,92.9,86.5z"/>
	<path class="st4" d="M109.4,12.1c-0.3,0.6-0.9,0.6-1.4,0.8c-4.1,1.4-8.3,2.7-12.4,4.1c-3.9,1.3-7.8,2.7-11.8,4
		c-2.7,0.9-5.5,1.8-8.2,2.6c-0.1,0.2-0.4,0.2-0.6,0.3c-0.9,0.1-1.4,0.6-1.2,1.6c0,6.8,0,13.6,0,20.4c0,1.9,0,3.7,0,5.6
		c0,6.9,0,13.7,0,20.6c0,2.3,0,4.6,0,6.9c0,0.6,0.1,1,0.8,1c-0.2,0.1-0.3,0.2-0.5,0.2c-0.1,0-0.1,0-0.2,0c-2-0.7-4.1-1.4-6.1-2.1
		c-0.2,0-0.3,0-0.5,0c-3.1-1.2-6.2-2.1-9.3-3.2c-1.9-0.7-3.9-1.1-5.7-2c-0.3,0-0.6-0.1-0.9-0.1c-1-0.4-2-0.8-3-1.1
		c-0.1,0-0.2,0-0.2,0c-3.7-1.2-7.4-2.5-11.1-3.7c0-1.9-0.1-3.7-0.1-5.6c0.1-0.4,0.2-0.7,0.2-1.1c-0.1-1.5-0.1-3-0.2-4.4
		c0.1-0.3,0.1-0.6,0.2-0.9c0-1-0.1-2.1-0.1-3.1c0-5.5-0.1-10.9-0.1-16.4c0.1-0.4,0.1-0.8,0.2-1.1c0-1.5-0.1-2.9-0.1-4.4
		c0.1-0.3,0.1-0.6,0.2-0.9c0-5-0.1-10,0-15.1c0-0.9,0.3-1.9,1.1-2.5c2.2,0.7,4.4,1.5,6.6,2.2c2,0.6,4,1.5,6.1,1.9c0,0.1,0,0.2,0,0.2
		c1.3,0.1,2.5,0.7,3.7,1.2c0.2,0,0.3,0,0.5,0c2,0.7,4,1.4,5.9,2.1c3,1,5.9,2,8.9,3c0.2,0,0.5,0,0.7,0c0.7,0.6,1.7,0.7,2.5,1
		c0.6,0.2,0.7,0,0.7-0.6c0-1.1,0-2.3,0-3.4c0-0.3,0-0.6,0-0.9c0-6.3,0-12.6,0-19c0.9-0.2,1.8,0.2,2.7,0.4c3.8,1.3,7.7,2.5,11.5,3.8
		c0.1,0,0.2,0.2,0.4,0.3c0.7,0,1.4,0.4,2.1,0.6c0.1,0.1,0.3,0.1,0.4,0.2c0.5,0,0.9,0.3,1.4,0.5c5.4,1.8,10.8,3.6,16.2,5.3
		C108.7,11.5,109.3,11.6,109.4,12.1z"/>
	<path class="st5" d="M14.4,84.8L14.4,84.8c-0.6-0.1-1.1-0.3-1.7-0.4C13.3,84.6,13.8,84.7,14.4,84.8z"/>
	<path class="st6" d="M73.8,80.2c0,0.1,0,0.1-0.1,0.2C71,81,68.5,82,65.8,82.8c-1.4,0.4-2.7,1.1-4.2,1.3c-0.1,0-0.2,0-0.3,0
		c-0.1,0.1-0.2,0.1-0.3,0.2c-3.7,1.5-7.6,2.6-11.4,3.9c-4.2,1.4-8.5,2.8-12.7,4.3h0c-1.1-0.4-2.2-0.8-3.3-1.2
		c-1.3-0.5-2.7-0.7-3.9-1.4c-1.2-0.1-2.3-0.6-3.4-1c-3.6-1.2-7.2-2.4-10.8-3.6c-0.4-0.1-0.7-0.3-1.1-0.5c-0.6-0.1-1.1-0.3-1.7-0.4
		c-0.9-0.3-1.8-0.6-2.7-1c-1.6-0.3-3.1-0.9-4.6-1.4c-1.5-0.4-3-0.9-4.5-1.4c0.6-0.6,1.2-1.1,2.1-1.4c4.9-1.6,9.9-3.3,14.8-4.9
		c0.3-0.1,0.5-0.1,0.8-0.2c0.6-0.3,1.2-0.5,1.8-0.8c2.1-0.6,4.2-1.3,6.3-1.9c0.4-0.5,1.1-0.3,1.6-0.7c2.9-0.8,5.7-1.8,8.5-2.8
		c3.7,1.2,7.4,2.5,11.1,3.7c0.1,0,0.2,0,0.2,0c1,0.4,2,0.8,3,1.1c0.3,0,0.6,0,0.9,0.1c1.8,0.9,3.8,1.4,5.7,2c3.1,1.1,6.3,2,9.3,3.2
		c0.2,0,0.3,0,0.5,0C69.7,78.8,71.8,79.5,73.8,80.2z"/>
	<path class="st0" d="M73.7,23.4c0,0.6-0.2,0.7-0.7,0.6c-0.9-0.3-1.8-0.4-2.5-1c-0.2,0-0.5,0-0.7,0c-3-1-5.9-2-8.9-3
		c-2-0.7-4-1.4-5.9-2.1c-0.2,0-0.3,0-0.5,0c-1.2-0.4-2.4-1-3.7-1.2c0-0.1,0-0.1,0-0.2c-2.1-0.5-4.1-1.3-6.1-1.9
		c-2.2-0.7-4.4-1.5-6.6-2.2c0.4-0.7,1.1-1.1,1.8-1.3c7.6-2.6,15.3-5.1,23-7.7c0.2-0.1,0.5-0.1,0.7-0.1c0.2,0,0.3-0.1,0.5-0.1
		c0.1-0.2,0.3-0.2,0.5-0.2c0.4-0.1,0.7-0.4,1.1-0.3c0.6-0.6,1.4-0.6,2.2-0.8c0.7-0.2,1.5-0.4,2.2-0.6C71,0.4,72.3,0,73.7,0
		c0,6.3,0,12.6,0,19c0,0.3,0,0.6,0,0.9C73.7,21.1,73.7,22.2,73.7,23.4z"/>
	<path class="st7" d="M90.8,5.4c-0.1-0.1-0.3-0.1-0.4-0.2C90.6,5.1,90.7,5.2,90.8,5.4z"/>
	<polygon class="st8" points="12.4,140.3 12.5,140.3 12.6,140.3 12.5,140.3 	"/>
	<path class="st8" d="M133.6,140.8c0.1,0,0.2-0.1,0.2-0.1C133.8,140.7,133.7,140.8,133.6,140.8z"/>
	<path class="st3" d="M146.9,80.8c-0.1-0.1-0.1-0.2-0.2-0.2C146.7,80.7,146.8,80.8,146.9,80.8z"/>
	<path class="st6" d="M146.5,80.5c-10.1,3.4-20.2,6.8-30.3,10.2c-1.6,0.5-3.3,1-4.9,1.6c-0.1,0.1-0.3,0.2-0.4,0.3
		c-0.2,0-0.3,0-0.5,0c-0.8-0.5-1.7-0.7-2.6-0.9c-0.3-0.1-0.7-0.1-0.8-0.5c-0.2,0-0.5,0-0.7,0c-1-0.6-2.1-0.8-3.1-1.1
		c-3.3-1.2-6.7-2.2-10.1-3.4c-0.5-0.2-0.9-0.4-1.4-0.5c-0.3,0-0.6,0-0.9,0c-1.1-0.7-2.4-0.8-3.5-1.4c-0.2,0-0.5,0-0.7,0
		c-0.4-0.4-0.9-0.5-1.3-0.6c-2.9-1-5.8-1.9-8.7-2.9c-0.8-0.3-1.6-0.7-2.4-0.7c0,0,0-0.1,0-0.1c0.2-0.1,0.3-0.2,0.5-0.2
		c8.1-2.7,16.2-5.4,24.4-8.1c0.1,0,0.2,0,0.3-0.1l0,0c0.3,0,0.7,0.1,0.9-0.3c0.2,0,0.4-0.1,0.6-0.1c0,0,0.1,0,0.1-0.1
		c2.2-0.7,4.4-1.5,6.5-2.2c1.2-0.4,2.3-0.8,3.5-1.2c4.6,1.6,9.1,3.1,13.7,4.6c0.2,0,0.5,0,0.7,0c1.1,0.6,2.3,1,3.5,1.4
		c0.2,0,0.5,0,0.7,0c1.4,0.5,2.9,1.1,4.3,1.6c3.8,1.3,7.6,2.5,11.3,3.7C145.6,79.5,146.1,79.8,146.5,80.5z"/>
	<path class="st3" d="M100.1,71.5c-0.2,0.5-0.6,0.3-0.9,0.3C99.5,71.7,99.8,71.6,100.1,71.5z"/>
	<path class="st3" d="M100.7,71.3c0,0-0.1,0-0.1,0.1L100.7,71.3L100.7,71.3z"/>
	<path class="st9" d="M92.9,86.5c-0.5-0.2-0.9-0.4-1.4-0.5v0C92,86.1,92.4,86.3,92.9,86.5z"/>
	<path class="st2" d="M110.8,92.5c0,18.5,0,37,0,55.5c-1.2,0.2-2.2-0.3-3.2-0.7c-6.4-2.1-12.8-4.2-19.1-6.4
		c-0.2-0.1-0.4-0.1-0.6-0.1c-1.3-0.6-2.7-1.1-4.2-1.4c-3.2-1.3-6.5-2.2-9.7-3.3l-0.1,0l-0.1,0v0c0-18.6,0-37.2,0-55.8
		c0.1,0,0.1-0.1,0.1-0.2c0.1,0,0.1,0,0.2,0c0,0,0,0.1,0,0.1c0.9,0,1.6,0.4,2.4,0.7c2.9,1,5.8,1.9,8.7,2.9c0.5,0.2,1,0.2,1.3,0.6
		c0.2,0,0.5,0,0.7,0c1.1,0.6,2.4,0.7,3.5,1.4c0.3,0,0.6,0,0.9,0v0c0.5,0.2,0.9,0.4,1.4,0.5c3.3,1.2,6.7,2.2,10.1,3.4
		c1,0.4,2.1,0.6,3.1,1.1c0.2,0,0.5,0,0.7,0c0.2,0.3,0.5,0.4,0.8,0.5c0.9,0.2,1.8,0.4,2.6,0.9C110.4,92.4,110.6,92.4,110.8,92.5z"/>
</g>
</svg>
