<svg xmlns="http://www.w3.org/2000/svg" xmlns:xlink="http://www.w3.org/1999/xlink" viewBox="0 0 50 50" fill="#FFC300">
  <path d="M28.96875 1.21875C28.78125 1.253906 28.609375 1.339844 28.46875 1.46875L24.25 5.09375L22.8125 3.5C22.617188 3.273438 22.328125 3.148438 22.03125 3.15625C21.78125 3.175781 21.546875 3.285156 21.375 3.46875L18.875 6L15.46875 6C15.4375 6 15.40625 6 15.375 6C15.34375 6 15.3125 6 15.28125 6C15.121094 6.035156 14.96875 6.109375 14.84375 6.21875L4.6875 14.03125L4.625 14.0625C4.613281 14.074219 4.605469 14.082031 4.59375 14.09375C4.582031 14.09375 4.574219 14.09375 4.5625 14.09375C4.519531 14.113281 4.476563 14.132813 4.4375 14.15625C4.425781 14.167969 4.417969 14.175781 4.40625 14.1875C4.382813 14.207031 4.363281 14.226563 4.34375 14.25C4.308594 14.277344 4.277344 14.308594 4.25 14.34375C4.214844 14.382813 4.183594 14.425781 4.15625 14.46875C4.144531 14.488281 4.132813 14.511719 4.125 14.53125C4.113281 14.542969 4.105469 14.550781 4.09375 14.5625C4.070313 14.613281 4.046875 14.664063 4.03125 14.71875L0.09375 22.5625C-0.101563 22.949219 -0.0273438 23.414063 0.277344 23.722656C0.585938 24.027344 1.050781 24.101563 1.4375 23.90625L4 22.625L4 43C4 43.550781 4.449219 44 5 44L35 44C35.011719 44 35.019531 44 35.03125 44C35.09375 43.996094 35.15625 43.984375 35.21875 43.96875C35.25 43.960938 35.28125 43.949219 35.3125 43.9375C35.5625 43.863281 35.777344 43.695313 35.90625 43.46875L43.78125 33.625C43.921875 33.449219 44 33.226563 44 33L44 23.4375L49.71875 17.71875C50.035156 17.386719 50.085938 16.886719 49.84375 16.5L44.03125 6.8125C44.023438 6.78125 44.011719 6.75 44 6.71875C43.957031 6.578125 43.878906 6.453125 43.78125 6.34375C43.773438 6.324219 43.761719 6.300781 43.75 6.28125C43.738281 6.28125 43.730469 6.28125 43.71875 6.28125C43.710938 6.261719 43.699219 6.238281 43.6875 6.21875C43.675781 6.21875 43.667969 6.21875 43.65625 6.21875C43.636719 6.207031 43.613281 6.195313 43.59375 6.1875C43.59375 6.175781 43.59375 6.167969 43.59375 6.15625C43.582031 6.15625 43.574219 6.15625 43.5625 6.15625C43.511719 6.121094 43.460938 6.089844 43.40625 6.0625C43.394531 6.0625 43.386719 6.0625 43.375 6.0625C43.355469 6.050781 43.332031 6.039063 43.3125 6.03125C43.300781 6.03125 43.292969 6.03125 43.28125 6.03125C43.261719 6.019531 43.238281 6.007813 43.21875 6C43.207031 6 43.199219 6 43.1875 6C43.167969 6 43.144531 6 43.125 6C43.113281 6 43.105469 6 43.09375 6C43.074219 6 43.050781 6 43.03125 6C43.019531 6 43.011719 6 43 6L42.9375 6C42.917969 6 42.894531 6 42.875 6L34.03125 6L29.84375 1.5625C29.667969 1.359375 29.421875 1.238281 29.15625 1.21875C29.09375 1.210938 29.03125 1.210938 28.96875 1.21875 Z M 29.0625 3.59375L36.78125 11.78125L34.5625 14L32.15625 14C32.128906 13.964844 32.097656 13.933594 32.0625 13.90625L25.5625 6.59375 Z M 22.03125 5.625L29.5 14L13.84375 14 Z M 15.78125 8L16.9375 8L11.03125 14L7.9375 14 Z M 35.90625 8L40.5625 8L38.15625 10.40625 Z M 42.8125 8.625L47.75 16.8125L41.1875 23.375L36.25 15.1875 Z M 6 16L34 16L34 42L6 42L6 21.125C6.003906 21.082031 6.003906 21.042969 6 21 Z M 36 18.5625L40.15625 25.5C40.308594 25.765625 40.578125 25.949219 40.882813 25.992188C41.1875 26.035156 41.496094 25.933594 41.71875 25.71875L42 25.4375L42 32.65625L36 40.15625 Z M 4 19.25L4 20.375L3.25 20.75 Z M 14.71875 20C14.167969 20.078125 13.78125 20.589844 13.859375 21.140625C13.9375 21.691406 14.449219 22.078125 15 22L25 22C25.359375 22.003906 25.695313 21.816406 25.878906 21.503906C26.058594 21.191406 26.058594 20.808594 25.878906 20.496094C25.695313 20.183594 25.359375 19.996094 25 20L15 20C14.96875 20 14.9375 20 14.90625 20C14.875 20 14.84375 20 14.8125 20C14.78125 20 14.75 20 14.71875 20Z" fill="#FFC300" />
</svg>