<?xml version="1.0" encoding="utf-8"?>
<!-- Generator: Adobe Illustrator 25.0.0, SVG Export Plug-In . SVG Version: 6.00 Build 0)  -->
<svg version="1.1" id="Layer_1" xmlns="http://www.w3.org/2000/svg" xmlns:xlink="http://www.w3.org/1999/xlink" x="0px" y="0px"
	 viewBox="0 0 227.9 259.5" style="enable-background:new 0 0 227.9 259.5;" xml:space="preserve">
<style type="text/css">
	.st0{fill:#151f21;}
</style>
<g>
	<path class="st0" d="M77.5,164.8c18.4-11.1,1.4-29.2-3.4-43.3c-4.6-11.6-20.7-23-13.3-36.7c8.4-7.1,4.8-17.7,5.6-27.3
		C67.2,46.2,70,27.7,84.6,28c1,0.2,2.3-0.2,2.6-1.1c10.2-27.5,53.7,0,66-26.8c8.4,9.1,9.7,21.5,4.8,32.5c-1.2,2.8-1.4,5-0.1,7.7
		c3.4,7.1,3.6,14.7,3.8,22.3c0.6,7.4-2,15.6,4.7,20.7c9,13.2-7.2,25.9-12.3,37.2c-3.1,11.9-18.2,26.9-9.7,38.7
		c1,2.1,5.7,4.3,4.1,6.6C127,186.7,98.5,186.6,77.5,164.8z"/>
	<path class="st0" d="M70.1,171.2c7.3,30.5,17.8,59.7,30.7,88.2C85.5,257.7-5.7,256.8,0,236.1C0.4,194.9,41.5,188.6,70.1,171.2z"/>
	<path class="st0" d="M127.9,259.2c12.9-27.8,22.9-56.6,29.4-86.4c0.3-1.5,1.3-0.8,2.2-0.4c16.9,8.9,34.7,16.2,50.5,27
		c12.4,7.9,15.6,22,17.7,35.6c1,5.6-3.2,12.2-9.1,13.2C188.6,253.9,158.5,259.1,127.9,259.2z"/>
</g>
</svg>
