<?xml version="1.0" encoding="utf-8"?>
<!-- Generator: Adobe Illustrator 25.0.0, SVG Export Plug-In . SVG Version: 6.00 Build 0)  -->
<svg version="1.1" id="Layer_1" xmlns="http://www.w3.org/2000/svg" xmlns:xlink="http://www.w3.org/1999/xlink" x="0px" y="0px"
	 viewBox="0 0 200.2 200.3" style="enable-background:new 0 0 200.2 200.3;" xml:space="preserve">
<style type="text/css">
	.st0{fill:#151f21;}
	.st1{fill:#FFC300;}
	.st2{fill:#626E7F;}
</style>
<g>
	<path class="st0" d="M40.2,120.1c8.1,0,16.3,0,24.4,0c9,0,15.8,6.8,15.8,15.8c0,16.1,0,32.2,0,48.4c0,8.8-6.9,15.8-15.6,15.9
		c-16.6,0.1-33.2,0.1-49.7,0c-8,0-15-7-15-14.9C0,168.5,0,151.8,0,135.1c0-8.4,7.4-15,15.2-15c4.2,0,8.3,0,12.5,0
		C31.9,120.1,36.1,120.1,40.2,120.1z"/>
	<path class="st1" d="M159.8,199.9c-8.6,0-17.1-0.1-25.7,0c-4.6,0.1-11.1-4.4-12.9-8.8c-1.1-2.7-1.6-5.4-1.6-8.2
		c0-15.6,0-31.2,0-46.8c0-9,6.8-15.9,15.8-16c16.4,0,32.7,0,49.1,0c6.6,0,12.5,4.1,14.8,10.3c0.6,1.5,0.8,3.1,0.8,4.7
		c0,16.6,0,33.2,0,49.8c0,8.4-7.5,15.1-15,15C176.7,199.8,168.3,199.9,159.8,199.9C159.8,199.9,159.8,199.9,159.8,199.9z"/>
	<path class="st0" d="M159.7,79.9c-8.2,0-16.4-0.2-24.6,0.1c-8.2,0.3-15.6-7.3-15.5-15.5c0.2-16.4,0.2-32.7,0-49.1
		c-0.1-7.5,6.2-15.3,15.3-15.3C151.5,0,168,0,184.6,0.1c8.5,0,15.2,6.7,15.2,15.2c0.1,16.5,0,32.9,0,49.4c0,8.7-7.5,15.4-15.2,15.2
		C176.3,79.8,168,79.9,159.7,79.9z"/>
	<path class="st0" d="M40.4,79.9c-8.2,0-16.4-0.1-24.6,0c-8.4,0.2-15.4-7-15.4-15.4c0-16.4,0-32.7,0-49.1c0-9.1,7.3-15.4,15.4-15.4
		c16.5,0,32.9-0.1,49.4,0C72.6,0.1,77.6,4.4,80,11c0.5,1.3,0.6,2.8,0.6,4.2c0,16.5,0,33.1,0,49.6c0,9.1-8.3,15.6-15.1,15.1
		c-0.2,0-0.3,0-0.5,0C56.8,79.9,48.6,79.9,40.4,79.9z"/>
	<path class="st2" d="M159.7,102.8c-12.2,0-24.4,0-36.6,0c-1.2,0-2.4,0-3.1-1.1c-0.8-1-1.3-2.1-0.7-3.4c0.7-1.4,1.8-2.2,3.4-2.2
		c5.7,0,11.4,0,17.1,0c18.8,0,37.5,0,56.3,0c2.9,0,4.6,2.2,3.6,4.6c-0.6,1.5-1.9,2-3.5,2c-8.2,0-16.4,0-24.6,0
		C167.7,102.8,163.7,102.8,159.7,102.8C159.7,102.8,159.7,102.8,159.7,102.8z"/>
	<path class="st2" d="M103.4,40.1c0,11.7,0,23.3,0,35c0,0.5,0,0.9,0,1.4c0,2.3-1.3,3.8-3.4,3.7c-2,0-3.2-1.4-3.3-3.7c0-3,0-6,0-9
		c0-21.1,0-42.2,0-63.3c0-0.9-0.1-1.9,0.5-2.7c0.9-1.3,2.2-1.9,3.8-1.4c1.6,0.5,2.4,1.6,2.4,3.4c0,6.9,0,13.9,0,20.8
		C103.4,29.6,103.4,34.8,103.4,40.1z"/>
	<path class="st2" d="M96.8,160.1c0-12,0-24,0-36c0-1.6,0.3-2.9,1.8-3.7c2.3-1.3,4.8,0.4,4.9,3.2c0.1,5,0,10,0,15.1
		c0,18.9,0,37.9,0,56.8c0,0.8,0,1.6-0.2,2.4c-0.6,1.7-1.8,2.6-3.5,2.4c-1.7-0.2-2.9-1.5-2.9-3.2c0-9.7,0-19.4,0-29.1
		C96.8,165.3,96.8,162.7,96.8,160.1z"/>
	<path class="st2" d="M40.4,103.2c-12.1,0-24.3,0-36.4,0c-2.3,0-3.7-1.1-3.8-3c-0.1-2.1,1.3-3.5,3.6-3.5c6.1,0,12.2,0,18.4,0
		c18.2,0,36.5,0,54.7,0c3,0,4.7,2.2,3.6,4.6c-0.7,1.5-2,1.9-3.6,1.9c-9.9,0-19.9,0-29.8,0C45,103.2,42.7,103.2,40.4,103.2z"/>
	<path class="st2" d="M97.1,99.9c0-2.1,1.3-3.4,3.4-3.4c1.8,0,3.3,1.5,3.2,3.4c0,1.8-1.5,3.2-3.3,3.3
		C98.6,103.2,97.1,101.7,97.1,99.9z"/>
</g>
</svg>
