<?xml version="1.0" encoding="utf-8"?>
<!-- Generator: Adobe Illustrator 25.0.0, SVG Export Plug-In . SVG Version: 6.00 Build 0)  -->
<svg version="1.1" id="Layer_1" xmlns="http://www.w3.org/2000/svg" xmlns:xlink="http://www.w3.org/1999/xlink" x="0px" y="0px"
	 viewBox="0 0 337.2 79.5" style="enable-background:new 0 0 337.2 79.5;" xml:space="preserve">
<style type="text/css">
	.st0{enable-background:new    ;}
	.st1{fill:#FFFFFF;}
	.st2{fill:none;stroke:#FFFFFF;stroke-miterlimit:10;}
	.st3{fill:#FCD007;}
	.st4{fill:#C6A310;}
	.st5{fill:#7F690B;}
	.st6{fill:url(#SVGID_1_);}
	.st7{fill:url(#SVGID_2_);}
	.st8{fill:url(#SVGID_3_);}
</style>
<g>
	<g class="st0">
		<path class="st1" d="M89.3,58.6l0.3,1.5l0.4-1.5l2.2-7.3h0.8l2.1,7.3l0.4,1.5l0.3-1.6l1.8-7.3h0.9l-2.5,10h-0.8l-2.3-7.8l-0.3-1
			l-0.2,1L90,61.3h-0.8l-2.5-10h0.9L89.3,58.6z"/>
		<path class="st1" d="M102.5,61.4c-0.6,0-1.2-0.2-1.7-0.5c-0.5-0.3-0.9-0.7-1.2-1.3c-0.3-0.6-0.4-1.2-0.4-1.9v-0.3
			c0-0.7,0.1-1.4,0.4-1.9c0.3-0.6,0.7-1,1.2-1.3c0.5-0.3,1-0.5,1.6-0.5c0.9,0,1.6,0.3,2.1,0.9c0.5,0.6,0.8,1.5,0.8,2.5v0.5H100v0.2
			c0,0.8,0.2,1.5,0.7,2.1c0.5,0.6,1.1,0.8,1.8,0.8c0.4,0,0.8-0.1,1.2-0.2s0.6-0.4,0.9-0.8l0.5,0.4C104.5,61,103.6,61.4,102.5,61.4z
			 M102.3,54.5c-0.6,0-1.1,0.2-1.6,0.7c-0.4,0.5-0.7,1.1-0.8,1.8h4.4v-0.1c0-0.7-0.2-1.3-0.6-1.7S103,54.5,102.3,54.5z"/>
		<path class="st1" d="M111.3,57.2v4.1h-0.8v-10h3.4c1,0,1.9,0.3,2.5,0.8c0.6,0.5,0.9,1.3,0.9,2.2c0,0.9-0.3,1.7-0.9,2.2
			c-0.6,0.5-1.4,0.8-2.5,0.8H111.3z M111.3,56.5h2.5c0.8,0,1.4-0.2,1.9-0.6c0.4-0.4,0.6-0.9,0.6-1.6c0-0.7-0.2-1.2-0.6-1.6
			c-0.4-0.4-1-0.6-1.8-0.6h-2.6V56.5z"/>
		<path class="st1" d="M123.5,61.3c-0.1-0.2-0.1-0.6-0.2-1c-0.3,0.4-0.7,0.7-1.1,0.9c-0.4,0.2-0.9,0.3-1.4,0.3
			c-0.7,0-1.3-0.2-1.7-0.6c-0.4-0.4-0.7-0.9-0.7-1.5c0-0.7,0.3-1.3,0.9-1.7c0.6-0.4,1.4-0.6,2.5-0.6h1.5v-0.8c0-0.5-0.2-0.9-0.5-1.2
			c-0.3-0.3-0.8-0.5-1.4-0.5c-0.6,0-1,0.1-1.4,0.4c-0.4,0.3-0.6,0.6-0.6,1.1l-0.8,0c0-0.6,0.3-1.1,0.8-1.5c0.5-0.4,1.2-0.6,2-0.6
			c0.8,0,1.5,0.2,2,0.6c0.5,0.4,0.7,1,0.7,1.7v3.5c0,0.7,0.1,1.3,0.2,1.6v0.1H123.5z M120.9,60.7c0.5,0,1-0.1,1.5-0.4
			s0.7-0.6,0.9-1.1v-1.6h-1.5c-0.8,0-1.5,0.2-1.9,0.4c-0.5,0.3-0.7,0.7-0.7,1.2c0,0.4,0.2,0.8,0.5,1S120.4,60.7,120.9,60.7z"/>
		<path class="st1" d="M129,60.7c0.6,0,1-0.2,1.4-0.5c0.4-0.3,0.6-0.7,0.6-1.2h0.8c0,0.5-0.2,0.9-0.4,1.2c-0.3,0.4-0.6,0.7-1,0.9
			s-0.9,0.3-1.4,0.3c-1,0-1.7-0.3-2.3-1s-0.9-1.6-0.9-2.7v-0.2c0-0.7,0.1-1.4,0.4-1.9c0.3-0.6,0.6-1,1.1-1.3c0.5-0.3,1-0.5,1.7-0.5
			c0.8,0,1.5,0.2,2,0.7s0.8,1.1,0.8,1.9h-0.8c0-0.6-0.2-1-0.6-1.4c-0.4-0.4-0.9-0.5-1.4-0.5c-0.7,0-1.3,0.3-1.7,0.8
			c-0.4,0.5-0.6,1.3-0.6,2.2v0.2c0,0.9,0.2,1.7,0.6,2.2C127.7,60.5,128.3,60.7,129,60.7z"/>
		<path class="st1" d="M135.3,57.6l-0.9,0.9v2.8h-0.8V50.8h0.8v6.7l0.8-0.8l2.8-2.8h1l-3.1,3.1l3.4,4.3h-1L135.3,57.6z"/>
		<path class="st1" d="M145.1,61.3c-0.1-0.2-0.1-0.6-0.2-1c-0.3,0.4-0.7,0.7-1.1,0.9c-0.4,0.2-0.9,0.3-1.4,0.3
			c-0.7,0-1.3-0.2-1.7-0.6c-0.4-0.4-0.7-0.9-0.7-1.5c0-0.7,0.3-1.3,0.9-1.7c0.6-0.4,1.4-0.6,2.5-0.6h1.5v-0.8c0-0.5-0.2-0.9-0.5-1.2
			c-0.3-0.3-0.8-0.5-1.4-0.5c-0.6,0-1,0.1-1.4,0.4c-0.4,0.3-0.6,0.6-0.6,1.1l-0.8,0c0-0.6,0.3-1.1,0.8-1.5c0.5-0.4,1.2-0.6,2-0.6
			c0.8,0,1.5,0.2,2,0.6c0.5,0.4,0.7,1,0.7,1.7v3.5c0,0.7,0.1,1.3,0.2,1.6v0.1H145.1z M142.5,60.7c0.5,0,1-0.1,1.5-0.4
			s0.7-0.6,0.9-1.1v-1.6h-1.5c-0.8,0-1.5,0.2-1.9,0.4c-0.5,0.3-0.7,0.7-0.7,1.2c0,0.4,0.2,0.8,0.5,1S142,60.7,142.5,60.7z"/>
		<path class="st1" d="M147.6,57.5c0-1.2,0.3-2.1,0.8-2.8c0.5-0.7,1.2-1,2.1-1c1,0,1.8,0.4,2.3,1.2l0-1.1h0.8v7.2
			c0,1-0.3,1.7-0.8,2.3s-1.3,0.8-2.2,0.8c-0.5,0-1-0.1-1.5-0.3c-0.5-0.2-0.8-0.5-1.1-0.9l0.5-0.5c0.6,0.7,1.3,1.1,2.1,1.1
			c0.7,0,1.2-0.2,1.6-0.6c0.4-0.4,0.6-1,0.6-1.7v-0.9c-0.5,0.7-1.3,1.1-2.3,1.1c-0.9,0-1.5-0.3-2.1-1s-0.8-1.6-0.8-2.8V57.5z
			 M148.4,57.7c0,0.9,0.2,1.7,0.6,2.2c0.4,0.5,0.9,0.8,1.6,0.8c1,0,1.7-0.5,2.1-1.4v-3.4c-0.2-0.5-0.5-0.8-0.8-1.1
			c-0.4-0.2-0.8-0.4-1.3-0.4c-0.7,0-1.2,0.3-1.6,0.8C148.6,55.8,148.4,56.6,148.4,57.7z"/>
		<path class="st1" d="M158.5,61.4c-0.6,0-1.2-0.2-1.7-0.5c-0.5-0.3-0.9-0.7-1.2-1.3c-0.3-0.6-0.4-1.2-0.4-1.9v-0.3
			c0-0.7,0.1-1.4,0.4-1.9c0.3-0.6,0.7-1,1.2-1.3c0.5-0.3,1-0.5,1.6-0.5c0.9,0,1.6,0.3,2.1,0.9c0.5,0.6,0.8,1.5,0.8,2.5v0.5H156v0.2
			c0,0.8,0.2,1.5,0.7,2.1c0.5,0.6,1.1,0.8,1.8,0.8c0.4,0,0.8-0.1,1.2-0.2s0.6-0.4,0.9-0.8l0.5,0.4C160.5,61,159.7,61.4,158.5,61.4z
			 M158.4,54.5c-0.6,0-1.1,0.2-1.6,0.7c-0.4,0.5-0.7,1.1-0.8,1.8h4.4v-0.1c0-0.7-0.2-1.3-0.6-1.7S159,54.5,158.4,54.5z"/>
		<path class="st1" d="M169.4,56.8l3-5.4h1l-3.6,6.2v3.7H169v-3.7l-3.6-6.2h1L169.4,56.8z"/>
		<path class="st1" d="M173.8,57.5c0-0.7,0.1-1.4,0.4-1.9c0.3-0.6,0.7-1,1.2-1.3c0.5-0.3,1.1-0.5,1.7-0.5c1,0,1.8,0.3,2.4,1
			c0.6,0.7,0.9,1.6,0.9,2.7v0.2c0,0.7-0.1,1.4-0.4,1.9c-0.3,0.6-0.7,1-1.2,1.3c-0.5,0.3-1.1,0.5-1.7,0.5c-1,0-1.8-0.3-2.4-1
			c-0.6-0.7-0.9-1.6-0.9-2.7V57.5z M174.6,57.7c0,0.9,0.2,1.6,0.7,2.2c0.5,0.6,1.1,0.9,1.8,0.9c0.7,0,1.3-0.3,1.8-0.9
			c0.5-0.6,0.7-1.3,0.7-2.2v-0.2c0-0.6-0.1-1.1-0.3-1.6c-0.2-0.5-0.5-0.8-0.9-1.1c-0.4-0.3-0.8-0.4-1.3-0.4c-0.7,0-1.3,0.3-1.8,0.9
			c-0.5,0.6-0.7,1.3-0.7,2.2V57.7z"/>
		<path class="st1" d="M186.8,60.4c-0.5,0.7-1.3,1.1-2.4,1.1c-0.8,0-1.4-0.2-1.8-0.7c-0.4-0.5-0.6-1.1-0.6-2v-4.8h0.8v4.7
			c0,1.4,0.6,2.1,1.7,2.1c1.2,0,1.9-0.5,2.2-1.5v-5.4h0.8v7.4h-0.8L186.8,60.4z"/>
		<path class="st1" d="M193.2,54.6c-0.2,0-0.4,0-0.6,0c-0.5,0-0.9,0.1-1.3,0.4c-0.4,0.3-0.6,0.7-0.8,1.2v5.1h-0.8v-7.4h0.8l0,1.2
			c0.4-0.9,1.1-1.3,2.1-1.3c0.2,0,0.4,0,0.5,0.1L193.2,54.6z"/>
		<path class="st1" d="M199.1,61.3h-0.8v-10h0.8V61.3z"/>
		<path class="st1" d="M201.3,57.5c0-1.1,0.3-2.1,0.8-2.7c0.5-0.7,1.2-1,2.1-1c1,0,1.8,0.4,2.3,1.2v-4.1h0.8v10.5h-0.8l0-1
			c-0.5,0.7-1.3,1.1-2.3,1.1c-0.9,0-1.5-0.3-2.1-1C201.5,59.7,201.3,58.8,201.3,57.5L201.3,57.5z M202.1,57.7c0,0.9,0.2,1.7,0.6,2.2
			c0.4,0.5,0.9,0.8,1.6,0.8c1,0,1.7-0.4,2.1-1.3v-3.5c-0.4-1-1.1-1.4-2.1-1.4c-0.7,0-1.2,0.3-1.6,0.8
			C202.3,55.8,202.1,56.6,202.1,57.7z"/>
		<path class="st1" d="M212.2,61.4c-0.6,0-1.2-0.2-1.7-0.5c-0.5-0.3-0.9-0.7-1.2-1.3c-0.3-0.6-0.4-1.2-0.4-1.9v-0.3
			c0-0.7,0.1-1.4,0.4-1.9c0.3-0.6,0.7-1,1.2-1.3c0.5-0.3,1-0.5,1.6-0.5c0.9,0,1.6,0.3,2.1,0.9c0.5,0.6,0.8,1.5,0.8,2.5v0.5h-5.3v0.2
			c0,0.8,0.2,1.5,0.7,2.1c0.5,0.6,1.1,0.8,1.8,0.8c0.4,0,0.8-0.1,1.2-0.2s0.6-0.4,0.9-0.8l0.5,0.4C214.3,61,213.4,61.4,212.2,61.4z
			 M212.1,54.5c-0.6,0-1.1,0.2-1.6,0.7c-0.4,0.5-0.7,1.1-0.8,1.8h4.4v-0.1c0-0.7-0.2-1.3-0.6-1.7S212.7,54.5,212.1,54.5z"/>
		<path class="st1" d="M221.3,61.3c-0.1-0.2-0.1-0.6-0.2-1c-0.3,0.4-0.7,0.7-1.1,0.9c-0.4,0.2-0.9,0.3-1.4,0.3
			c-0.7,0-1.3-0.2-1.7-0.6c-0.4-0.4-0.7-0.9-0.7-1.5c0-0.7,0.3-1.3,0.9-1.7c0.6-0.4,1.4-0.6,2.5-0.6h1.5v-0.8c0-0.5-0.2-0.9-0.5-1.2
			c-0.3-0.3-0.8-0.5-1.4-0.5c-0.6,0-1,0.1-1.4,0.4c-0.4,0.3-0.6,0.6-0.6,1.1l-0.8,0c0-0.6,0.3-1.1,0.8-1.5c0.5-0.4,1.2-0.6,2-0.6
			c0.8,0,1.5,0.2,2,0.6c0.5,0.4,0.7,1,0.7,1.7v3.5c0,0.7,0.1,1.3,0.2,1.6v0.1H221.3z M218.7,60.7c0.5,0,1-0.1,1.5-0.4
			s0.7-0.6,0.9-1.1v-1.6h-1.5c-0.8,0-1.5,0.2-1.9,0.4c-0.5,0.3-0.7,0.7-0.7,1.2c0,0.4,0.2,0.8,0.5,1S218.2,60.7,218.7,60.7z"/>
		<path class="st1" d="M228.5,59.4c0-0.4-0.2-0.7-0.5-1c-0.3-0.2-0.8-0.4-1.5-0.6c-0.7-0.1-1.2-0.3-1.5-0.5
			c-0.4-0.2-0.6-0.4-0.8-0.7c-0.2-0.3-0.3-0.6-0.3-0.9c0-0.6,0.2-1.1,0.7-1.4c0.5-0.4,1.1-0.6,1.9-0.6c0.8,0,1.5,0.2,2,0.6
			c0.5,0.4,0.7,0.9,0.7,1.6h-0.8c0-0.4-0.2-0.8-0.5-1.1s-0.8-0.4-1.4-0.4c-0.5,0-1,0.1-1.3,0.4c-0.3,0.2-0.5,0.5-0.5,0.9
			c0,0.4,0.1,0.7,0.4,0.9c0.3,0.2,0.8,0.4,1.5,0.6s1.3,0.3,1.6,0.5c0.4,0.2,0.6,0.4,0.8,0.7c0.2,0.3,0.3,0.6,0.3,1
			c0,0.6-0.3,1.1-0.8,1.5c-0.5,0.4-1.2,0.6-2,0.6c-0.9,0-1.6-0.2-2.1-0.6c-0.5-0.4-0.8-0.9-0.8-1.6h0.8c0,0.5,0.2,0.9,0.6,1.1
			c0.4,0.3,0.9,0.4,1.5,0.4c0.6,0,1-0.1,1.4-0.4C228.4,60.1,228.5,59.8,228.5,59.4z"/>
	</g>
	<g class="st0">
		<path class="st1" d="M105.4,36.9H102c-0.4,0-0.7-0.1-0.9-0.3s-0.4-0.4-0.5-0.7l-1.1-3.3h-7.2l-1.1,3.3c-0.1,0.2-0.3,0.5-0.5,0.7
			c-0.3,0.2-0.6,0.3-0.9,0.3h-3.4l7.3-18.9h4.5L105.4,36.9z M93.2,29.6h5.2l-1.7-5.2c-0.1-0.3-0.2-0.7-0.4-1.2
			c-0.2-0.4-0.3-0.9-0.4-1.4c-0.1,0.5-0.3,1-0.4,1.5c-0.1,0.5-0.3,0.8-0.4,1.2L93.2,29.6z"/>
		<path class="st1" d="M115.1,33.7c0.6,0,1.1-0.1,1.6-0.2c0.5-0.1,0.9-0.2,1.3-0.4v-2.9h-1.9c-0.3,0-0.5-0.1-0.6-0.2
			c-0.2-0.1-0.2-0.3-0.2-0.6v-2.4h6.7v8c-0.5,0.4-1,0.7-1.5,0.9s-1.1,0.5-1.7,0.6c-0.6,0.2-1.2,0.3-1.9,0.4
			c-0.7,0.1-1.4,0.1-2.2,0.1c-1.4,0-2.7-0.2-3.8-0.7s-2.2-1.2-3.1-2s-1.5-1.9-2-3.1c-0.5-1.2-0.7-2.5-0.7-3.9c0-1.4,0.2-2.7,0.7-3.9
			c0.5-1.2,1.1-2.2,2-3.1c0.9-0.9,1.9-1.5,3.2-2s2.6-0.7,4.1-0.7c0.8,0,1.5,0.1,2.2,0.2c0.7,0.1,1.3,0.3,1.9,0.5s1.1,0.5,1.6,0.8
			c0.5,0.3,0.9,0.7,1.3,1l-1.3,1.9c-0.1,0.2-0.3,0.3-0.4,0.4c-0.2,0.1-0.4,0.2-0.6,0.2c-0.3,0-0.5-0.1-0.8-0.3
			c-0.3-0.2-0.7-0.4-1-0.5c-0.3-0.2-0.6-0.3-0.9-0.4c-0.3-0.1-0.7-0.2-1-0.2c-0.4,0-0.8-0.1-1.2-0.1c-0.8,0-1.6,0.1-2.2,0.4
			c-0.7,0.3-1.2,0.7-1.7,1.2c-0.5,0.5-0.8,1.2-1.1,1.9c-0.3,0.7-0.4,1.6-0.4,2.5c0,1,0.1,1.9,0.4,2.7s0.7,1.4,1.2,2
			c0.5,0.5,1.1,0.9,1.7,1.2C113.6,33.6,114.3,33.7,115.1,33.7z"/>
		<path class="st1" d="M143.4,27.4c0,1.4-0.2,2.6-0.7,3.8s-1.1,2.2-2,3.1c-0.9,0.9-1.9,1.6-3.1,2s-2.6,0.7-4,0.7
			c-1.5,0-2.8-0.2-4-0.7s-2.3-1.2-3.1-2c-0.9-0.9-1.5-1.9-2-3.1c-0.5-1.2-0.7-2.5-0.7-3.8c0-1.4,0.2-2.6,0.7-3.8
			c0.5-1.2,1.1-2.2,2-3.1c0.9-0.9,1.9-1.5,3.1-2s2.6-0.7,4-0.7c1.5,0,2.8,0.2,4,0.7s2.2,1.2,3.1,2c0.9,0.9,1.5,1.9,2,3.1
			S143.4,26,143.4,27.4z M138.9,27.4c0-0.9-0.1-1.8-0.4-2.5c-0.2-0.7-0.6-1.4-1-1.9c-0.5-0.5-1-0.9-1.7-1.2
			c-0.7-0.3-1.4-0.4-2.2-0.4c-0.8,0-1.6,0.1-2.3,0.4c-0.7,0.3-1.2,0.7-1.7,1.2c-0.5,0.5-0.8,1.2-1,1.9c-0.2,0.8-0.4,1.6-0.4,2.5
			c0,0.9,0.1,1.8,0.4,2.5c0.2,0.8,0.6,1.4,1,1.9c0.5,0.5,1,0.9,1.7,1.2c0.7,0.3,1.4,0.4,2.3,0.4c0.8,0,1.6-0.1,2.2-0.4
			c0.7-0.3,1.2-0.7,1.7-1.2c0.5-0.5,0.8-1.2,1-1.9C138.8,29.2,138.9,28.4,138.9,27.4z"/>
		<path class="st1" d="M149.9,29.9v7h-4.4V17.9h6.2c1.4,0,2.5,0.1,3.5,0.4c1,0.3,1.8,0.7,2.4,1.2c0.6,0.5,1.1,1.1,1.3,1.8
			s0.4,1.4,0.4,2.2c0,0.6-0.1,1.2-0.2,1.7s-0.4,1.1-0.7,1.5c-0.3,0.5-0.7,0.9-1.2,1.2c-0.5,0.4-1,0.7-1.6,0.9
			c0.3,0.1,0.6,0.3,0.8,0.5c0.3,0.2,0.5,0.5,0.7,0.8l4,6.6h-4c-0.7,0-1.3-0.3-1.6-0.8l-3.1-5.5c-0.1-0.2-0.3-0.4-0.5-0.5
			c-0.2-0.1-0.4-0.2-0.8-0.2H149.9z M149.9,26.8h1.8c0.6,0,1.1-0.1,1.5-0.2c0.4-0.2,0.8-0.4,1-0.6c0.3-0.3,0.5-0.6,0.6-0.9
			c0.1-0.4,0.2-0.7,0.2-1.2c0-0.8-0.3-1.5-0.8-2s-1.4-0.7-2.5-0.7h-1.8V26.8z"/>
		<path class="st1" d="M180.4,36.9H177c-0.4,0-0.7-0.1-0.9-0.3s-0.4-0.4-0.5-0.7l-1.1-3.3h-7.2l-1.1,3.3c-0.1,0.2-0.3,0.5-0.5,0.7
			c-0.3,0.2-0.6,0.3-0.9,0.3h-3.4l7.3-18.9h4.5L180.4,36.9z M168.2,29.6h5.2l-1.7-5.2c-0.1-0.3-0.2-0.7-0.4-1.2
			c-0.2-0.4-0.3-0.9-0.4-1.4c-0.1,0.5-0.3,1-0.4,1.5c-0.1,0.5-0.3,0.8-0.4,1.2L168.2,29.6z"/>
		<path class="st1" d="M191.3,30.6v6.3H187V17.9h6.7c1.3,0,2.5,0.2,3.4,0.5c1,0.3,1.7,0.8,2.4,1.3c0.6,0.6,1.1,1.2,1.4,2
			c0.3,0.8,0.4,1.6,0.4,2.4c0,0.9-0.2,1.8-0.5,2.6c-0.3,0.8-0.8,1.5-1.4,2s-1.4,1-2.4,1.3c-1,0.3-2.1,0.5-3.4,0.5H191.3z
			 M191.3,27.2h2.3c1.1,0,2-0.3,2.5-0.8c0.5-0.5,0.8-1.3,0.8-2.3c0-0.4-0.1-0.8-0.2-1.2s-0.3-0.7-0.6-0.9c-0.3-0.3-0.6-0.5-1-0.6
			c-0.4-0.1-0.9-0.2-1.4-0.2h-2.3V27.2z"/>
		<path class="st1" d="M219,36.9h-3.4c-0.4,0-0.7-0.1-0.9-0.3s-0.4-0.4-0.5-0.7l-1.1-3.3h-7.2l-1.1,3.3c-0.1,0.2-0.3,0.5-0.5,0.7
			c-0.3,0.2-0.6,0.3-0.9,0.3h-3.4l7.3-18.9h4.5L219,36.9z M206.8,29.6h5.2l-1.7-5.2c-0.1-0.3-0.2-0.7-0.4-1.2
			c-0.2-0.4-0.3-0.9-0.4-1.4c-0.1,0.5-0.3,1-0.4,1.5c-0.1,0.5-0.3,0.8-0.4,1.2L206.8,29.6z"/>
		<path class="st1" d="M232.4,32c0.1,0,0.2,0,0.3,0.1c0.1,0,0.2,0.1,0.3,0.2l1.7,1.8c-0.8,1-1.7,1.7-2.9,2.3s-2.5,0.8-4.1,0.8
			c-1.4,0-2.7-0.2-3.9-0.7s-2.1-1.2-2.9-2s-1.4-1.9-1.8-3.1c-0.4-1.2-0.6-2.5-0.6-3.9c0-1.4,0.2-2.7,0.7-3.9c0.5-1.2,1.2-2.2,2-3.1
			c0.9-0.9,1.9-1.5,3.1-2c1.2-0.5,2.6-0.7,4-0.7c0.7,0,1.4,0.1,2,0.2c0.6,0.1,1.2,0.3,1.8,0.5s1,0.5,1.5,0.8c0.5,0.3,0.9,0.6,1.2,1
			l-1.5,2c-0.1,0.1-0.2,0.2-0.3,0.3s-0.3,0.1-0.5,0.1c-0.2,0-0.3,0-0.4-0.1s-0.3-0.2-0.4-0.3c-0.2-0.1-0.3-0.2-0.5-0.3
			c-0.2-0.1-0.4-0.2-0.7-0.3s-0.6-0.2-0.9-0.3c-0.3-0.1-0.7-0.1-1.2-0.1c-0.8,0-1.5,0.1-2.2,0.4c-0.7,0.3-1.2,0.7-1.7,1.2
			c-0.5,0.5-0.8,1.2-1.1,1.9c-0.3,0.7-0.4,1.6-0.4,2.5c0,1,0.1,1.8,0.4,2.6s0.6,1.4,1.1,1.9s1,0.9,1.6,1.2c0.6,0.3,1.3,0.4,1.9,0.4
			c0.4,0,0.8,0,1.1-0.1c0.3,0,0.6-0.1,0.9-0.2s0.6-0.2,0.8-0.4c0.3-0.2,0.5-0.3,0.8-0.6c0.1-0.1,0.2-0.2,0.3-0.2
			C232.2,32,232.3,32,232.4,32z"/>
		<path class="st1" d="M241.2,25.6h0.7c0.7,0,1.1-0.2,1.4-0.6l4.3-6.2c0.2-0.3,0.5-0.6,0.8-0.7s0.7-0.2,1.1-0.2h3.8l-5.6,7.7
			c-0.2,0.3-0.4,0.5-0.6,0.7c-0.2,0.2-0.4,0.3-0.7,0.5c0.3,0.1,0.6,0.3,0.9,0.5c0.3,0.2,0.5,0.5,0.7,0.9l5.7,8.8h-3.9
			c-0.3,0-0.5,0-0.6-0.1c-0.2,0-0.3-0.1-0.5-0.2s-0.2-0.2-0.3-0.3c-0.1-0.1-0.2-0.2-0.3-0.3l-4.3-6.6c-0.2-0.2-0.4-0.4-0.6-0.5
			s-0.6-0.1-1-0.1h-1.1v8.1h-4.4V17.9h4.4V25.6z"/>
		<path class="st1" d="M273,36.9h-3.4c-0.4,0-0.7-0.1-0.9-0.3s-0.4-0.4-0.5-0.7l-1.1-3.3h-7.2l-1.1,3.3c-0.1,0.2-0.3,0.5-0.5,0.7
			c-0.3,0.2-0.6,0.3-0.9,0.3h-3.4l7.3-18.9h4.5L273,36.9z M260.8,29.6h5.2l-1.7-5.2c-0.1-0.3-0.2-0.7-0.4-1.2
			c-0.2-0.4-0.3-0.9-0.4-1.4c-0.1,0.5-0.3,1-0.4,1.5c-0.1,0.5-0.3,0.8-0.4,1.2L260.8,29.6z"/>
		<path class="st1" d="M282.7,33.7c0.6,0,1.1-0.1,1.6-0.2c0.5-0.1,0.9-0.2,1.3-0.4v-2.9h-1.9c-0.3,0-0.5-0.1-0.6-0.2
			c-0.2-0.1-0.2-0.3-0.2-0.6v-2.4h6.7v8c-0.5,0.4-1,0.7-1.5,0.9s-1.1,0.5-1.7,0.6c-0.6,0.2-1.2,0.3-1.9,0.4s-1.4,0.1-2.2,0.1
			c-1.4,0-2.7-0.2-3.8-0.7s-2.2-1.2-3.1-2s-1.5-1.9-2-3.1c-0.5-1.2-0.7-2.5-0.7-3.9c0-1.4,0.2-2.7,0.7-3.9c0.5-1.2,1.1-2.2,2-3.1
			c0.9-0.9,1.9-1.5,3.2-2c1.2-0.5,2.6-0.7,4.1-0.7c0.8,0,1.5,0.1,2.2,0.2s1.3,0.3,1.9,0.5s1.1,0.5,1.6,0.8c0.5,0.3,0.9,0.7,1.3,1
			l-1.3,1.9c-0.1,0.2-0.3,0.3-0.4,0.4c-0.2,0.1-0.4,0.2-0.6,0.2c-0.3,0-0.5-0.1-0.8-0.3c-0.3-0.2-0.7-0.4-1-0.5
			c-0.3-0.2-0.6-0.3-0.9-0.4s-0.7-0.2-1-0.2c-0.4,0-0.8-0.1-1.2-0.1c-0.8,0-1.6,0.1-2.2,0.4c-0.7,0.3-1.2,0.7-1.7,1.2
			c-0.5,0.5-0.8,1.2-1.1,1.9c-0.3,0.7-0.4,1.6-0.4,2.5c0,1,0.1,1.9,0.4,2.7s0.7,1.4,1.2,2c0.5,0.5,1.1,0.9,1.7,1.2
			C281.1,33.6,281.9,33.7,282.7,33.7z"/>
		<path class="st1" d="M297.1,36.9h-4.4V17.9h4.4V36.9z"/>
		<path class="st1" d="M303.4,18c0.1,0,0.2,0,0.4,0.1c0.1,0,0.2,0.1,0.3,0.2c0.1,0.1,0.2,0.2,0.3,0.4l9,11.4c0-0.4-0.1-0.7-0.1-1.1
			c0-0.3,0-0.7,0-1v-10h3.9v18.9h-2.3c-0.3,0-0.6-0.1-0.9-0.2c-0.2-0.1-0.5-0.3-0.7-0.6l-8.9-11.3c0,0.3,0,0.7,0.1,1
			c0,0.3,0,0.6,0,0.9v10.2h-3.9V17.9h2.3C303.1,17.9,303.2,18,303.4,18z"/>
		<path class="st1" d="M329.1,33.7c0.6,0,1.1-0.1,1.6-0.2c0.5-0.1,0.9-0.2,1.3-0.4v-2.9h-1.9c-0.3,0-0.5-0.1-0.6-0.2
			c-0.2-0.1-0.2-0.3-0.2-0.6v-2.4h6.7v8c-0.5,0.4-1,0.7-1.5,0.9s-1.1,0.5-1.7,0.6c-0.6,0.2-1.2,0.3-1.9,0.4s-1.4,0.1-2.2,0.1
			c-1.4,0-2.7-0.2-3.8-0.7s-2.2-1.2-3.1-2s-1.5-1.9-2-3.1c-0.5-1.2-0.7-2.5-0.7-3.9c0-1.4,0.2-2.7,0.7-3.9c0.5-1.2,1.1-2.2,2-3.1
			c0.9-0.9,1.9-1.5,3.2-2c1.2-0.5,2.6-0.7,4.1-0.7c0.8,0,1.5,0.1,2.2,0.2s1.3,0.3,1.9,0.5s1.1,0.5,1.6,0.8c0.5,0.3,0.9,0.7,1.3,1
			l-1.3,1.9c-0.1,0.2-0.3,0.3-0.4,0.4c-0.2,0.1-0.4,0.2-0.6,0.2c-0.3,0-0.5-0.1-0.8-0.3c-0.3-0.2-0.7-0.4-1-0.5
			c-0.3-0.2-0.6-0.3-0.9-0.4s-0.7-0.2-1-0.2c-0.4,0-0.8-0.1-1.2-0.1c-0.8,0-1.6,0.1-2.2,0.4c-0.7,0.3-1.2,0.7-1.7,1.2
			c-0.5,0.5-0.8,1.2-1.1,1.9c-0.3,0.7-0.4,1.6-0.4,2.5c0,1,0.1,1.9,0.4,2.7s0.7,1.4,1.2,2c0.5,0.5,1.1,0.9,1.7,1.2
			C327.6,33.6,328.3,33.7,329.1,33.7z"/>
	</g>
	<line class="st2" x1="86.2" y1="44.5" x2="298.4" y2="44.5"/>
	<g>
		<path class="st3" d="M3.8,19c5.8-3.3,11.6-6.7,17.4-10c5-3,10.1-5.9,15.1-8.9c0.3-0.1,0.5-0.2,0.8,0c11,6.4,22,12.7,33,19.1
			c0.1,0,0.2,0.1,0.3,0.2c-1.6,0.9-3.2,1.9-4.8,2.8C56.2,27.6,46.8,33,37.4,38.5c-0.5,0.3-0.9,0.3-1.4,0c-5.2-3-10.5-6.1-15.7-9.1
			c-0.1-0.1-0.3-0.2-0.4-0.3c0.2-0.1,0.4-0.3,0.6-0.4c-0.1-0.1-0.1-0.1-0.2-0.1c-2.2-1.3-4.5-2.6-6.7-3.8c-0.1-0.1-0.3-0.1-0.4-0.1
			c-1.3-0.9-2.7-1.6-4.1-2.4c-1.3-0.9-2.8-1.6-4.2-2.4C4.6,19.5,4.2,19.2,3.8,19z"/>
		<path class="st4" d="M35.7,58.1v21.3c-0.2,0-0.4-0.1-0.5-0.2C24.3,73,13.4,66.7,2.5,60.4C2.1,60.2,2,59.9,2,59.5V38.7
			c1-0.6,1.9-1.2,2.9-1.8c0.2,0,0.5-0.3,0.6,0.1c-0.1,0.1-0.1,0.2-0.1,0.2c0,0.1,0,0.2,0,0.2V44c0,0.3,0.1,0.5,0.3,0.7
			C6.8,45.9,8,47,9.2,48c2.5,2,5.2,3.7,8,5.2c2.6,1.3,5.3,2.3,8.2,3.1C28.8,57.3,32.2,57.9,35.7,58.1z"/>
		<path class="st3" d="M37.8,47.5c0-2.1,0-4.3,0-6.4c0-0.3,0-0.5,0.3-0.7C49.2,34,60.2,27.6,71.3,21.3c0,0,0,0,0.2,0
			c0,6.4,0,12.7,0,19c-0.1,0.1-0.2,0.2-0.3,0.3c-2.8,2.2-5.8,3.9-9.1,5.2c-1.3,0.5-2.6,0.9-4,1.4c-3.1,0.8-6.2,1.3-9.3,1.5
			c-1.8,0-3.5-0.1-5.3-0.1c-0.5-0.1-1-0.1-1.5-0.2C40.6,48.1,39.1,47.9,37.8,47.5z"/>
		<path class="st5" d="M30.8,53.6c1.6,0.4,3.2,0.7,4.9,0.9v3.7c-3.5-0.3-6.9-0.9-10.3-1.8c-2.8-0.8-5.5-1.8-8.2-3.1
			c-2.9-1.4-5.6-3.1-8-5.2c-1.2-1-2.4-2.1-3.5-3.3c-0.2-0.2-0.3-0.4-0.3-0.7v-6.6c0-0.1,0-0.2,0-0.2c0-0.1,0-0.2,0.1-0.2
			c1.1,1.4,2.1,2.9,3.4,4.2c1.3,1.5,2.7,2.8,4.3,4c1.6,1.3,3.2,2.5,5,3.4c1.9,1.2,3.8,2.1,5.9,2.9C26.2,52.4,28.5,53.1,30.8,53.6z"
			/>
		<path class="st4" d="M35.7,41.1c0,1.9,0,3.9,0,5.8c-0.2-0.1-0.5-0.1-0.7-0.2c-1.4-0.4-2.8-1.1-4.2-1.6c-0.4-0.2-0.9-0.5-1.3-0.7
			c-1.8-0.9-3.5-2-5.1-3.2c-0.4-0.3-0.8-0.6-1.2-1c-1.7-1.4-3.2-3-4.7-4.6c-0.1-0.1-0.2-0.3-0.3-0.4c-0.9-1-1.6-2.2-2.3-3.3
			c-0.1-0.2-0.3-0.4,0-0.6c0.6-0.3,1.2-0.8,1.9-1c3.7,2.1,7.4,4.3,11.1,6.4c2.1,1.2,4.2,2.4,6.3,3.6C35.6,40.5,35.7,40.7,35.7,41.1z
			"/>
		<path class="st5" d="M71.4,45.9c-0.9,0.7-1.6,1.6-2.5,2.4C67,50,65,51.4,62.8,52.7c-4,2.3-8.4,3.7-12.9,4.6
			c-2.1,0.4-4.3,0.7-6.5,0.9c-0.6,0-1.3,0.1-1.9,0.1c-0.1,0-0.3,0-0.4-0.1L41,58.1c0-0.1-0.1-0.2-0.1-0.2c0,0.2,0.2,0.2,0.4,0.2h0.1
			h0.1c0.1,0,0.2,0,0.3,0c0.5,0,1-0.1,1.5-0.1c2.2-0.2,4.3-0.4,6.5-0.9c4.5-0.9,8.9-2.3,12.9-4.6c2.2-1.3,4.2-2.7,6.1-4.4
			c0.6-0.5,1.2-1,1.8-1.5C70.8,46.3,71.1,46.1,71.4,45.9z"/>
		<g>
			
				<linearGradient id="SVGID_1_" gradientUnits="userSpaceOnUse" x1="0" y1="-448.5048" x2="81.8" y2="-448.5048" gradientTransform="matrix(1 0 0 -1 0 -412)">
				<stop  offset="9.590021e-07" style="stop-color:#004682"/>
				<stop  offset="3.936001e-02" style="stop-color:#0B528C"/>
				<stop  offset="0.1978" style="stop-color:#357EAF"/>
				<stop  offset="0.3582" style="stop-color:#57A2CC"/>
				<stop  offset="0.5186" style="stop-color:#72BEE2"/>
				<stop  offset="0.6789" style="stop-color:#85D2F2"/>
				<stop  offset="0.8393" style="stop-color:#90DEFC"/>
				<stop  offset="1" style="stop-color:#94E2FF"/>
			</linearGradient>
			<path class="st6" d="M81.8,26.3c-0.9,3.3-2.4,6.4-4.2,9.3c-0.9,1.4-1.8,2.6-2.8,3.9c-2.1,2.4-4.4,4.6-6.9,6.5
				c-3,2.2-6.1,4-9.6,5.3l0,0c-1.1,0.4-3,1.2-5.5,1.8c0,0-1.3,0.3-3.9,0.9c-1.1,0.2-2.1,0.4-2.1,0.4l0,0c-0.8,0.1-1.5,0.2-2,0.2
				c-0.2,0-0.4,0-0.6,0.1c-0.2,0-0.4,0-0.5,0c-0.8,0-1.6,0.1-2.4,0.1c-0.7,0-1.4,0-2,0c-0.2,0-0.5-0.1-0.8-0.1
				c-0.6-0.1-1.1-0.1-1.6-0.1c-0.7,0-1.6-0.1-2.6-0.3c-1-0.1-1.8-0.3-3.4-0.7c-1.1-0.3-1.9-0.4-2.9-0.7s-1.7-0.6-2.1-0.7
				c0,0-0.9-0.3-1.7-0.7c-2.4-1-4.6-2.2-6-2.9c-2-1.1-2.8-1.6-3.5-2.2c0,0-0.2-0.1-0.4-0.3c-0.6-0.5-1-0.8-1.2-0.9
				c-1.1-0.8-2.1-1.8-2.4-2.1c-0.5-0.4-0.8-0.8-1-1l0,0c-0.4-0.5-0.8-0.8-0.8-0.9L8.8,41l0.1,0.2c0,0-0.9-0.9-1.6-1.8
				c-0.4-0.5-1-1.3-1.7-2.3L5.5,37c-0.2-0.1-0.4-0.1-0.4-0.1c-1,0.6-1.9,1.2-2.9,1.8c-0.6,0.3-1.1,0.6-1.7,0.9
				C0.1,39.8,0,39.7,0,39.4c0.2-1.7,0.3-3.5,0.5-5.2c0.2-1.8,0.4-3.6,0.5-5.4c0.2-2.3,0.5-4.5,0.7-6.8c0.1-1.1,0.2-2.1,0.3-3.2
				c0.1-0.7,0.1-0.7,0.7-0.4C3,18.6,3.4,18.8,3.8,19c0.4,0.3,0.8,0.5,1.2,0.8c1.4,0.8,2.8,1.5,4.2,2.4c1.4,0.7,2.8,1.5,4.1,2.4
				c0.1,0,0.3,0.1,0.4,0.1c2.2,1.3,4.5,2.6,6.7,3.9c0.1,0,0.1,0.1,0.2,0.1c-0.2,0.1-0.4,0.3-0.6,0.4c-0.7,0.4-1.4,0.7-2.1,1.2
				c-0.7,0.2-1.3,0.7-1.9,1c-0.4,0.2-0.1,0.4,0,0.6c0.7,1.1,1.4,2.3,2.3,3.3c0.1,0.1,0.2,0.3,0.3,0.4c1.4,1.7,3,3.2,4.7,4.6
				c0.4,0.3,0.8,0.6,1.2,1c1.7,1.1,3.3,2.2,5.1,3.2c0.4,0.2,0.9,0.5,1.3,0.7c1.4,0.6,2.8,1.2,4.2,1.6c0.2,0.1,0.5,0.1,0.7,0.2
				c0.6,0.2,1.2,0.4,1.8,0.6c0.1,0,0.2,0,0.2,0c1.4,0.5,2.8,0.6,4.2,0.8c0.5,0.1,1,0.1,1.5,0.2c1.8,0,3.5,0.2,5.3,0.1
				c3.2-0.2,6.3-0.7,9.3-1.5c1.3-0.5,2.7-0.9,4-1.4c3.3-1.3,6.3-3,9.1-5.2c0.1-0.1,0.2-0.2,0.3-0.3c0.9-0.5,1.5-1.2,2.3-1.9
				c0.5-0.5,3-2.8,5.4-6.8C80,30.3,80.9,28.5,81.8,26.3z"/>
		</g>
		<path class="st5" d="M71.5,42.7l-0.1,3.2l0,0c-0.3,0.2-0.6,0.4-0.8,0.7c-0.6,0.5-1.2,1-1.8,1.5c-1.9,1.7-3.9,3.1-6.1,4.4
			c-4,2.3-8.4,3.7-12.9,4.6c-2.2,0.5-4.3,0.7-6.5,0.9c-0.5,0-1,0.1-1.5,0.1c-0.1,0-0.2,0-0.3,0s-0.1,0-0.1,0h-0.1H41
			c-1.2,0-3.4-0.1-3.4-0.6c-0.1-0.8,0-2.9,0-2.9s3.1,0.2,3.3,0.2l0,0l0,0c0.6,0,1,0,1.3,0c0.6,0,0.8,0,1.2,0s0.7,0,1.1-0.1
			c1.4-0.1,2.8-0.2,4.1-0.6c3.3-0.5,6.4-1.4,9.4-2.7c3.4-1.3,6.6-3.1,9.6-5.3C69,45,70.3,43.9,71.5,42.7z"/>
		
			<linearGradient id="SVGID_2_" gradientUnits="userSpaceOnUse" x1="40.92" y1="24" x2="41.34" y2="24" gradientTransform="matrix(1 0 0 -1 0 82)">
			<stop  offset="9.590021e-07" style="stop-color:#004682"/>
			<stop  offset="3.936001e-02" style="stop-color:#0B528C"/>
			<stop  offset="0.1978" style="stop-color:#357EAF"/>
			<stop  offset="0.3582" style="stop-color:#57A2CC"/>
			<stop  offset="0.5186" style="stop-color:#72BEE2"/>
			<stop  offset="0.6789" style="stop-color:#85D2F2"/>
			<stop  offset="0.8393" style="stop-color:#90DEFC"/>
			<stop  offset="1" style="stop-color:#94E2FF"/>
		</linearGradient>
		<path class="st7" d="M41.3,58.1H41c0-0.1-0.1-0.2-0.1-0.2C41,58,41.1,58.1,41.3,58.1z"/>
		
			<linearGradient id="SVGID_3_" gradientUnits="userSpaceOnUse" x1="41.53" y1="23.9" x2="41.84" y2="23.9" gradientTransform="matrix(1 0 0 -1 0 82)">
			<stop  offset="9.590021e-07" style="stop-color:#004682"/>
			<stop  offset="3.936001e-02" style="stop-color:#0B528C"/>
			<stop  offset="0.1978" style="stop-color:#357EAF"/>
			<stop  offset="0.3582" style="stop-color:#57A2CC"/>
			<stop  offset="0.5186" style="stop-color:#72BEE2"/>
			<stop  offset="0.6789" style="stop-color:#85D2F2"/>
			<stop  offset="0.8393" style="stop-color:#90DEFC"/>
			<stop  offset="1" style="stop-color:#94E2FF"/>
		</linearGradient>
		<path class="st8" d="M41.8,58.1L41.8,58.1c0,0-0.1,0-0.3,0C41.6,58.1,41.7,58.1,41.8,58.1z"/>
		<path class="st3" d="M71.4,45.9v13.8c0,0.4-0.2,0.5-0.5,0.6c-5.5,3.2-11,6.3-16.5,9.5c-5.3,3.1-10.6,6.1-16,9.2
			c-0.2,0.1-0.4,0.3-0.7,0.4c-0.1-0.2-0.1-0.4-0.1-0.6V57.5c0.1,0.5,2,0.6,3.3,0.6c0.1,0,0.1,0,0.1,0c0-0.1-0.1-0.2-0.1-0.2
			c0,0.2,0.2,0.2,0.4,0.2h0.1h0.1c0.1,0,0.2,0,0.3,0h0.1c0.5,0,0.9-0.1,1.4-0.1c2.2-0.2,4.3-0.4,6.5-0.9c4.5-0.9,8.9-2.3,12.9-4.6
			c2.2-1.3,4.2-2.7,6.1-4.4c0.6-0.5,1.2-1,1.8-1.5C70.8,46.3,71.1,46.1,71.4,45.9z"/>
		<path class="st5" d="M40.7,58.1c0,0,0.4,0,1.1,0s-0.2-0.3-0.2-0.3l-1.1-0.2L40.7,58.1z"/>
	</g>
</g>
</svg>
