<?xml version="1.0" encoding="utf-8"?>
<!-- Generator: Adobe Illustrator 25.0.0, SVG Export Plug-In . SVG Version: 6.00 Build 0)  -->
<svg version="1.1" id="Layer_1" xmlns="http://www.w3.org/2000/svg" xmlns:xlink="http://www.w3.org/1999/xlink" x="0px" y="0px"
	 viewBox="0 0 94.3 94.3" style="enable-background:new 0 0 94.3 94.3;" xml:space="preserve">
<style type="text/css">
	.st0{fill:#EEF4FB;}
	.st1{fill:#D6E6F6;}
	.st2{fill:#1A3765;}
	.st3{fill:#3A62AE;}
	.st4{fill:#FEC40E;}
	.st5{fill:#056D7A;}
	.st6{fill:#34C4E7;}
</style>
<g>
	<rect x="0" y="22.2" class="st0" width="38.9" height="55.5"/>
	<rect x="38.9" y="22.2" class="st1" width="38.9" height="55.5"/>
	<path class="st2" d="M77.7,16.6c5.2,0,10.5,0,15.7,0c0.7,0,0.9,0.2,0.9,0.9c0,25.4,0,50.7,0,76.1c0,0.7-0.2,0.8-0.8,0.8
		c-12.4,0-24.8,0-37.1,0c-12.9,0-25.8,0-38.8,0c-1,0-1,0-1-0.9c0-5.2,0-10.4,0-15.5c0.8,0,1.6,0,2.5,0c4.1,0,8.2,0,12.2,0
		c1.4,0,2.9,0,4.3,0c1,0,2.1,0,3.1,0c0.3,0,0.6,0,0.9,0c5.7-0.1,11.5,0,17.2-0.1c6.6-0.1,13.2,0,19.8,0c1,0,1,0,1-1
		c0-17.8,0-35.7,0-53.5c0-0.3,0-0.6,0-0.9c0-0.1,0-0.1,0-0.2l0,0c0.1,0,0.1-0.1,0.1-0.2C77.7,20.1,77.7,18.3,77.7,16.6z"/>
	<path class="st2" d="M77.7,16.6c0,1.8,0,3.5-0.1,5.3c0,0.1,0,0.1-0.1,0.2c-12.6,0-25.2,0-37.9,0c-0.2,0-0.4-0.1-0.6,0.1
		c-0.1,0-0.2,0-0.3,0c0-5.5,0-11.1,0-16.6c0.1,0,0.2,0,0.3,0c3.1,0,6.2,0,9.4,0c0.5,0,0.9,0,1.4,0c0-1.6,0-3.2,0-4.8
		C49.9,0.2,50,0,50.6,0c1.4,0,2.8,0,4.3,0c0.5,0,0.7,0.1,0.7,0.6c0,1.6,0,3.1,0,4.7c0,0.1,0,0.1,0.1,0.1c1.7,0.1,3.4,0.1,5.2,0
		C61.2,5.4,61,5.1,61,4.8c0-1.6,0-3.2,0-4.8c0.1,0,0.1,0,0.2,0c1.7,0,3.4,0,5.1,0c0.1,0,0.1,0,0.2,0c0,1.4,0,2.8,0,4.2
		c0,0.4-0.1,0.9,0.1,1.3c0.2,0.2,0.5,0.1,0.8,0.1c3.1,0,6.2,0,9.3,0c0.6,0,0.8,0.2,0.8,0.8c0,3,0,6.1,0,9.1c0,0.3-0.1,0.5,0.1,0.8
		C77.7,16.5,77.7,16.5,77.7,16.6z"/>
	<path class="st3" d="M38.8,22.1c-0.6,0-1.2,0.1-1.8,0.1c-0.8,0-1.6,0-2.3-0.1c-3.2,0-6.5,0-9.7,0c-0.4,0-0.7,0-1.1,0.1
		c-1.2-0.1-2.4-0.1-3.6,0c-1,0-1.9,0-2.9,0c-3,0-6.1,0-9.1,0c-0.4,0-0.7,0-1.1,0.1c-1.2-0.1-2.4-0.1-3.6,0c-1,0-2.1,0-3.1-0.1
		c-0.3,0-0.6,0.1-0.6-0.3c0-1.4,0-2.8,0-4.2c0-4,0-7.9,0-11.9c0-0.1,0-0.2,0-0.2c1.3,0,2.7-0.1,4-0.1c0.2,0,0.4,0,0.6,0
		c2.2,0,4.3,0.1,6.5,0c0,2.5,0,5.1,0,7.6c0,0.3-0.1,0.6,0.4,0.7c1.4,0.2,2.7,0.1,4.1,0.1c0.6,0,1-0.2,0.9-0.9c0-2.5,0-5,0-7.5
		c0.1,0,0.2,0,0.3,0c1.4,0.1,2.8,0.1,4.3,0c0.3,0,0.7,0,1,0c0,2.5,0,5.1,0,7.6c0,0.7,0.2,0.9,0.8,0.8c1.3,0,2.7,0,4,0
		c0.6,0,0.8-0.2,0.8-0.8c0-2.5,0-5.1,0-7.6c0.1,0,0.1,0,0.2,0c3.2,0,6.4,0,9.5,0c0.5,0,0.9,0,1.4,0C38.8,11.1,38.8,16.6,38.8,22.1z"
		/>
	<path class="st4" d="M22.3,47.2c3.7,0,7.5,0,11.2,0c3.4,0,6.7,0,10.1,0c0.6,0,0.9,0.2,0.8,0.8c-0.1,1.3,0,2.7,0,4
		c0,0.6-0.2,0.7-0.7,0.7c-1.6,0-3.2,0-4.9,0c-2.1,0-4.2,0-6.3,0c-1.8,0-3.7,0-5.5,0c-1.3,0-2.6,0-4,0c-0.3,0-0.5,0-0.8,0
		c0-1.8,0-3.6-0.1-5.5C22.3,47.2,22.3,47.2,22.3,47.2z"/>
	<path class="st2" d="M16.6,5.5c0,2.5,0,5,0,7.5c0,0.7-0.3,1-0.9,0.9c-1.4,0-2.7,0-4.1-0.1c-0.5-0.1-0.4-0.3-0.4-0.7
		c0-2.5,0-5.1,0-7.6c0-1.8,0-3.6,0-5.4c0.1,0,0.1,0,0.2,0c1.7,0,3.4,0,5.1,0c0.1,0,0.1,0,0.2,0C16.6,1.8,16.6,3.7,16.6,5.5z"/>
	<path class="st2" d="M27.8,5.6c0,2.5,0,5,0,7.5c0,0.7-0.3,1-1,0.9c-1.4,0-2.8,0-4.3-0.1c-0.5-0.1-0.5-0.3-0.5-0.7
		c0-2.5,0-5.1,0-7.6c0-1.8,0-3.6,0-5.4c0.1,0,0.1,0,0.2,0c1.8,0,3.6,0,5.4,0c0.1,0,0.1,0,0.2,0C27.8,2,27.8,3.8,27.8,5.6z"/>
	<path class="st4" d="M11,52.4c0.1-1.2,0.1-2.5,0-3.7c0.2-0.5-0.1-1.1,0.2-1.6c1.7,0,3.4,0,5.2,0c0.1,0,0.1,0.1,0.2,0.1
		c0,1.8,0,3.6,0,5.4c-1.6,0-3.2,0-4.8,0C11.5,52.7,11.2,52.8,11,52.4z"/>
	<path class="st5" d="M71,5.5c1.2,0,2.3,0,3.5,0c0.9,0,1.8,0,2.7,0c0.3,0,0.5,0,0.5,0.4c0,3.5,0,7,0,10.5c-0.2-0.2-0.1-0.5-0.1-0.8
		c0-3,0-6.1,0-9.1c0-0.6-0.2-0.8-0.8-0.8c-3.1,0-6.2,0-9.3,0c-0.3,0-0.5,0.1-0.8-0.1c0,0,0.1,0,0.1,0C68.2,5.5,69.6,5.5,71,5.5z"/>
	<path class="st5" d="M39.1,22.1c0.2-0.2,0.4-0.1,0.6-0.1c12.6,0,25.2,0,37.9,0c0,0.1,0,0.1,0,0.2c-0.1,0-0.2,0-0.3,0
		c-0.2-0.1-0.4-0.1-0.5,0c-0.8,0-1.6,0-2.4,0c-0.1,0-0.2,0-0.4,0c-5.4,0-10.8,0-16.2,0c-0.1,0-0.2,0-0.4,0c-5.4,0-10.9,0-16.3,0
		c-0.1,0-0.2,0-0.4,0C40.2,22.2,39.7,22.2,39.1,22.1z"/>
	<path class="st5" d="M77.6,22c0-0.1,0-0.1,0.1-0.2C77.7,21.9,77.7,22,77.6,22z"/>
	<path class="st4" d="M58.3,52.7c-0.7,0-1.4,0-2.1,0c-0.6,0-0.8-0.2-0.7-0.7c0.3-2.9,1.4-5.4,3.6-7.4c0.4-0.4,0.9-0.7,1.3-1.1
		c0.8-0.8,0.9-2.1,0.4-3.1c-0.5-1-1.6-1.6-2.7-1.5c-1.1,0.1-2.1,0.9-2.3,2c-0.1,0.6-0.4,0.8-1,0.7c-1.3,0-2.7,0-4.1,0
		c-0.6,0-0.7-0.1-0.7-0.7c0.2-3.4,2.9-6.6,6.2-7.4c4.8-1.1,9.3,1.7,10.3,6.5c0.6,3-0.3,5.6-2.6,7.7c-1,0.9-2.1,1.8-2.5,3.2
		c-0.1,0.4-0.2,0.9-0.3,1.3c0,0.4-0.2,0.5-0.6,0.5C59.8,52.7,59,52.7,58.3,52.7z"/>
	<path class="st4" d="M58.3,58.2c0.7,0,1.4,0,2.1,0c0.4,0,0.6,0.1,0.6,0.5c0,1.5,0,3,0,4.6c0,0.4-0.1,0.5-0.5,0.5c-1.5,0-3,0-4.6,0
		c-0.4,0-0.5-0.2-0.5-0.5c0-1.5,0-3,0-4.5c0-0.4,0.1-0.6,0.6-0.6C56.8,58.2,57.6,58.2,58.3,58.2z"/>
	<path class="st6" d="M76.8,22.2c0.2-0.1,0.4-0.1,0.5,0C77.1,22.3,76.9,22.3,76.8,22.2z"/>
	<path class="st6" d="M74,22.2c0.1,0,0.2,0,0.4,0C74.2,22.3,74.1,22.3,74,22.2z"/>
</g>
</svg>
